<?xml version="1.0" encoding="utf-8"?>
<!-- Generator: Adobe Illustrator 19.0.0, SVG Export Plug-In . SVG Version: 6.00 Build 0)  -->
<svg version="1.1" id="Layer_1" xmlns="http://www.w3.org/2000/svg" xmlns:xlink="http://www.w3.org/1999/xlink" x="0px" y="0px"
	 viewBox="0 0 792 612" style="enable-background:new 0 0 792 612;" xml:space="preserve">
<style type="text/css">
	.st0{fill:#96D5F5;stroke:#262262;stroke-width:2;stroke-miterlimit:10;}
	.st1{fill:#FFFFFF;stroke:#262262;stroke-miterlimit:10;}
	.st2{fill:#FFFFFF;stroke:#262262;stroke-width:2;stroke-miterlimit:10;}
	.st3{fill:#0D1338;stroke:#262262;stroke-miterlimit:10;}
	.st4{fill:#F16273;}
	.st5{fill:#1BBCBC;}
	.st6{fill:#AAD37D;}
	.st7{fill:#FBB040;}
</style>
<g id="XMLID_2_">
	<g id="XMLID_73_">
		<g id="XMLID_118_">
			<circle id="XMLID_123_" class="st0" cx="169.9" cy="442.6" r="96.6"/>
			<circle id="XMLID_122_" class="st0" cx="326.8" cy="193.5" r="111.7"/>
			<circle id="XMLID_121_" class="st0" cx="553.6" cy="146.2" r="63.7"/>
			<circle id="XMLID_120_" class="st0" cx="553.6" cy="471" r="111.7"/>
			<circle id="XMLID_119_" class="st0" cx="703.2" cy="317.6" r="83.8"/>
		</g>
	</g>
	<g id="XMLID_4_">
		<path id="XMLID_127_" class="st1" d="M247.3,273.4c3.3,7.9,6,15.3,9.4,22.3c1,2,3.8,3.3,6,4.4c9.1,4.2,11.5,13.5,6,21.6
			c-2,2.9-3.3,6.9-3.2,10.4c0.6,19.1-7.5,32-22.3,32.5c-7.9,0.2-16.8-0.6-23.8-4c-14.2-6.8-27.5-15.5-41.1-23.5
			c-1.6-0.9-2.8-2.3-4.8-4c-5.7,7.5-10.5,15.1-16.6,21.4c-8.8,9-17.7,18.4-28.2,25c-20.1,12.6-38,4.3-43.6-18.9
			c-4.2-17.4-4.2-35.1-1.8-52.7c0.8-5.9-0.1-8.8-6.8-8.9c-6.3-0.2-12.5-1.8-18.8-2.3c-2.3-0.2-5,0.7-7,2c-10.5,6.7-19.6,3.6-23.5-8
			c-0.7-2-2.3-4.2-4.1-5.2c-26.1-14.6-22.2-37-0.6-53.9c10.7-8.3,23.2-14.4,34.9-21.4c3.3-2,6.9-3.4,10.8-5.3
			c-3.5-8.4-7.7-15.9-9.6-23.9c-3.4-14-7.5-28.3-7.3-42.5c0.3-18.8,14.2-27.5,32.9-23.9c19.8,3.8,36,14.5,51.9,26
			c1.9,1.4,3.5,3.1,5.5,4.8c6.6-8.4,12.7-15.9,18.4-23.7c1-1.4,0.9-3.9,0.6-5.8c-1.8-11.2,5.8-18.5,16.8-16.4c2.7,0.5,6,0.1,8.5-1.1
			c7.7-3.6,15.1-7.4,24.1-5.2c13.5,3.3,18.9,14.1,20.4,25.6c2.2,16.9,1.6,34.1,2,51.1c0.1,2.8-0.4,5.7-0.5,7
			c18.2,4.3,35.5,8.4,52.9,12.5c0.8,0.2,1.5,0.5,2.2,0.8c28.3,11.9,32,35.3,8.5,55c-7,5.9-14.7,11.2-22.6,15.9
			C265.1,265.6,256.5,269,247.3,273.4z M150.6,190.9c0,0.1,0,0.2,0,0.2c-7.3,1.2-14.7,1.8-21.8,3.8c-3.2,0.9-7,3.8-8.3,6.7
			c-5.5,12.8-10,26-15.1,39c-1.9,4.8-1.4,9,1.9,13.1c9,11,17.8,22.2,27.1,32.9c2,2.3,6.3,4.2,9.2,3.8c14.6-1.8,29.2-4.2,43.7-7
			c2.5-0.5,5.5-3.1,6.5-5.5c5.7-13.6,11.3-27.3,16-41.2c1.2-3.5,0.1-9-2-12.1c-6-8.9-13.4-16.9-19.7-25.6
			c-6.8-9.4-14.8-14.2-26.7-10.1C158.1,190.2,154.3,190.3,150.6,190.9z M305,218.2c-2.9-11.1-9.1-16.2-16.6-19.9
			c-16.8-8.4-35.1-10.8-53.5-12.2c-1.6-0.1-4.5,2.4-5,4.2c-2.9,10.6-5.7,21.3-7.7,32.1c-0.7,3.7-0.1,8.4,1.7,11.7
			c5.4,9.9,11.5,19.4,17.8,28.8c1,1.5,4.6,2.8,6.1,2.2c18.2-7.2,35.8-15.7,48.9-30.7C301,229.5,302.8,222.5,305,218.2z M167.4,328.8
			c-5.6-5.2-11.4-9.5-15.8-14.9c-9.7-12-20.9-18.2-36.8-14.6c-5.8,1.3-12.1,0.4-18.1,0.2c-4.2-0.1-6.2,1.2-6.3,5.8
			c-0.2,10-1.8,20-1.2,29.9c0.6,10.1,2,20.4,5.2,29.9c4.4,13.2,14.3,16.6,27.1,10.5C142.3,365.8,154.7,347.4,167.4,328.8z
			 M138.9,149.8c-12.1-7.5-23.8-15.7-36.4-22.1c-7.6-3.8-16.4-5.5-24.9-6.8c-9.6-1.5-16.7,3.5-18.8,12.9c-1.2,5.5-2.2,11.9-0.7,17.2
			c4.4,15.9,9.9,31.6,15.5,47.1c0.6,1.6,5,3.2,7.1,2.7c10.7-2.7,21.4-5.9,31.8-9.6c3.1-1.1,6.3-3.8,7.9-6.6
			C126.5,173.8,132.1,162.7,138.9,149.8z M147.8,148.7c10.6,10.2,20.3,19.8,30.3,29.1c1.3,1.2,3.7,1.7,5.6,1.7
			c11.6-0.2,23.2-0.8,34.8-1c4.2-0.1,6.3-1.6,6.7-5.8c1.8-19.2,3.5-38.3-2.6-57.1c-5.3-16.3-18.2-21.3-32.6-11.7
			c-1.8,1.2-3.3,4.4-3.4,6.7c-0.1,10.3-5.4,15.3-15.9,14.8c-2-0.1-4.8,0.4-6,1.7C158.8,134.1,153.4,141.5,147.8,148.7z M176.9,327.8
			c18.1,12.9,35.5,26.8,58.3,30.2c14,2.1,23-5.9,23.1-19.9c0-2.1,0.5-4.4-0.2-6.3c-0.7-2.1-2-4.7-3.7-5.6
			c-10.6-5.4-12.8-13.4-6-23.1c1.1-1.6,2.1-4.4,1.5-6.1c-2.6-7.1-5.9-13.9-8.9-20.7c-14.4,4-28.1,7.8-41.7,11.7
			c-1.1,0.3-2.5,1.3-3,2.3C189.9,302.5,183.5,314.9,176.9,327.8z M72,211.9c-18.2,6.9-35,14.7-48.2,27.8
			c-15.8,15.7-15.9,26.1-0.1,37.6c3.3,2.4,5.8,2.9,9.6,0.1c7.3-5.3,16.1-3.9,18.7,3.7c2.8,8.2,8.3,8.9,14.9,9.5
			c3.9,0.4,7.8,1.1,11.7,1.8c4.3,0.7,6.8-0.4,7.7-5.2c2.3-11.6,5.2-23.1,7.6-34.7c0.4-1.8,0.2-4.2-0.7-5.8
			C86.3,235.3,79.3,223.9,72,211.9z M217.8,236.8c-5.8,15.6-10.9,29.2-16.3,43.8c12.2-3.7,23.3-7.1,36-10.9
			C230.8,258.5,224.8,248.5,217.8,236.8z M186.3,186.1c10.2,12.5,19.1,23.5,29.1,35.9c2.9-13,5.4-24.4,8.2-37
			C210.6,185.4,199.2,185.8,186.3,186.1z M129.2,292.5c-10.2-12.8-19.1-24-29-36.4c-2.8,13-5.3,24.5-8,37
			C104.6,292.9,116,292.7,129.2,292.5z M113.8,197.8c-12.7,3.9-23.5,7.3-35.3,10.9c6.7,11.1,12.6,21,19.3,32.1
			C103.3,226.1,108.2,212.9,113.8,197.8z M170.3,180.2c-9-8.5-17.3-16.4-26.4-25.1c-5.9,11.1-11.1,20.9-17.1,32.1
			C142.1,184.8,155.7,182.6,170.3,180.2z M188.2,291.3c-14.6,2.4-28.2,4.6-42.7,6.9c4.5,4.7,8.1,8.8,12.1,12.6
			c4.1,3.9,8.6,7.5,13.2,11.5c1.2-1.6,2.2-2.5,2.8-3.6C178.3,309.8,183,301,188.2,291.3z"/>
		<path id="XMLID_111_" class="st1" d="M180.7,235.4c2.2,13.6-5.7,25.4-18.6,27.6c-12.8,2.2-25.3-6.6-27.4-19.2
			c-2.3-14.2,6.1-26.4,19.7-28.4C167.6,213.3,178.5,221.6,180.7,235.4z"/>
	</g>
	<polygon id="XMLID_5_" class="st2" points="376.3,438.2 350.6,476.1 304.9,472.9 284.9,431.7 310.5,393.7 356.2,397 	"/>
	<polygon id="XMLID_6_" class="st2" points="446.2,488.5 420.6,526.5 374.9,523.3 354.8,482.1 380.5,444.1 426.2,447.4 	"/>
	<polygon id="XMLID_7_" class="st2" points="524.2,450.2 498.5,488.1 452.8,484.9 432.8,443.7 458.4,405.7 504.1,409 	"/>
	<polygon id="XMLID_8_" class="st2" points="595.9,498.5 570.3,536.5 524.6,533.2 504.5,492.1 530.2,454.1 575.8,457.3 	"/>
	<g id="XMLID_1_">
		<path id="XMLID_3_" class="st3" d="M145.6,355.6v82.1c0,4.3,3.1,7.9,7.3,8.7c18.1,3.2,65.9,7.4,94.7-28.6c2-2.5,5.4-3.5,8.4-2.3
			c11.8,4.5,42.3,14.2,70.8,6.4c0,0,34.6,3.6,47.7-1.6c0.8-0.3,1.6-0.5,2.5-0.5l96.7,0.6c2.9,0,5.8-0.4,7.8-2
			c1.2-0.9,2.9-1.1,4.1-0.2c1.5,1.1,3.5,2.2,5.1,2.2h34.8c1.8,0,7.2-1.2,10.8-1.8c1.4-0.2,2.9-0.1,4.2,0.3c2.9,0.9,8.4,2.5,10,2.6
			l45.5,2.8c2,0.1,5.8-1.7,7.7-2.8c0.9-0.5,2-0.8,3.1-0.8c5.1-0.1,5,2.2,8.1,2.5c15.1,1.3,56.1,4.1,75.4-1.5
			c3.9-1.2,6.9-4.4,7.9-8.4l18.8-76.1c0,0,6.6-52.1-54.3-55.7c-1.6-0.1-3.2-0.6-4.6-1.4c-5.3-3.4-19.7-12.4-29.2-18.4
			c-6.1-3.8-13-6-20.2-6.3c-16.9-0.7-48.6-1.4-63.3,2.5c-3.3,0.9-6.8-0.1-9.2-2.5c-6.7-7-21.4-18.8-40.3-10.4
			c-2.8,1.3-6.1,1.2-8.8-0.3c-12.5-6.9-50.8-24.6-108.3-20.4c0,0-11.8,2.6-15.9,11.1c-1.4,2.9-4.3,4.8-7.5,5.2
			c-11,1.4-33.3,7.1-37.5,30c-0.7,4-4.2,7-8.3,7.2c-9,0.5-24.7,1.9-39.4,5.9c-3.1,0.9-6.1-1.7-5.6-4.9c2.2-13.8,5.6-44.8-2.5-65.4
			c-1.9-4.9-6.8-8.2-12.1-8.3c-24.8-0.5-99.3,2.8-110.1,57.7c0,0-17.4,51.3,11.2,81.9c1.5,1.6,1.1,4.1-0.7,5.2l-2.7,1.6
			C146.5,352.4,145.6,354,145.6,355.6z"/>
		<path id="XMLID_66_" class="st4" d="M417.1,291.1c0,13,0,26,0,39c0,1.5,0.2,2,1.9,1.9c9.7-1,19.4-1.9,29.1-2.8
			c1.2-0.1,2-0.3,2.1-1.8c1.1-18.8,2.2-37.6,3.3-56.5c0.2-2.8,0.2-5.7,0.3-8.6c0.1-2.9,1-4,3.8-4.6c4.3-0.9,8.5,0,12.7,0.8
			c3.8,0.7,7.5,2,11.2,3.2c2.3,0.8,3.3,2.1,3,4.6c-0.8,7.6-1.3,15.2-2.1,22.7c-1.7,15.2-3.5,30.4-5.5,45.6
			c-2.5,19.1-4.9,38.2-8.4,57.1c-0.4,2.2-1.4,3.1-3.4,3.6c-5.3,1.1-10.7,1.2-16.1,1.1c-2.1,0-1.8-1.8-1.9-2.9
			c-0.1-4.4-0.2-8.7,0-13.1c0.3-7.6,0.8-15.2,1.3-22.8c0.1-1.5-0.1-2-1.9-1.8c-9.3,0.9-18.6,1.8-27.9,2.5c-1.9,0.1-1.9,1.1-1.9,2.5
			c-0.2,11.1-0.2,22.2-1.1,33.3c-0.1,1.5-0.7,2.4-2.1,3.1c-6.1,2.7-12.4,4.1-19,5c-1.8,0.3-2-1-2.3-2.1c-1.2-4.5-1.8-9.2-2.4-13.8
			c-3.1-22.4-5.2-44.9-7.5-67.3c-1.9-18.2-3.6-36.4-5.4-54.7c-0.2-2.1-0.5-4.3-0.7-6.4c-0.5-3.8,0.3-5.1,3.7-6.8
			c2.9-1.4,6-2,9.1-2.5c8.1-1.3,16.2-1.6,24.4-0.9c1.6,0.1,2.2,0.7,2.3,2.3c0.5,5.4,0.8,10.8,0.8,16.1c0.1,8.3,0,16.6,0,25
			C416.6,291.1,416.9,291.1,417.1,291.1z"/>
		<path id="XMLID_65_" class="st4" d="M241.7,263.3c0.1,3.9,0.2,7.8-0.6,11.6c-0.4,1.9-1.2,3.1-3.5,3.5c-7.5,1.4-15,2.4-22.1,5.4
			c-8.1,3.4-13.9,8.7-15.5,17.8c-1.6,9.4,1.1,17.2,8.1,23.6c4.6,4.3,10.1,7.4,15.2,11c2.4,1.7,4.7,3.4,6.9,5.4
			c8.6,7.6,10,17.3,8.2,28c-2.5,14.7-11.2,24.8-23.8,32c-10.2,5.8-21.4,8.9-32.9,11c-1.2,0.2-2.3,0.4-3.5,0.5c-4,0.6-5.4,0-7.5-3.7
			c-3.2-5.8-4.5-12.1-5.4-18.6c-0.3-2.4-0.6-4.9-0.3-7.3c0.2-1.7,0.9-2.6,2.6-3.3c7.3-2.7,14.4-5.7,20.9-10c1.3-0.9,2.6-1.9,3.7-2.9
			c5.1-4.6,6.1-9.1,1.9-16.1c-2.3-3.9-6-6.5-9.5-9.2c-5-3.8-10-7.5-14.3-12.1c-14.5-15.4-20.7-46.6,1.6-68.5
			c12.5-12.3,27.6-19.3,44.5-23c5.2-1.1,10.5-1.7,15.8-2.2c2.3-0.2,3.8,0.6,4.8,2.6c2,4,2.8,8.2,3.5,12.5
			C241.1,255.3,241.6,259.3,241.7,263.3z"/>
		<path id="XMLID_64_" class="st5" d="M572.8,350c1.6-5,3.3-10.2,5-15.3c6.1-18.6,12-37.2,19-55.4c0.5-1.3,1.1-2.6,1.7-3.9
			c0.9-2.3,2.7-3,5-2.5c8.7,2,15.9,6.5,22,12.9c1.6,1.7,1.6,3.6,0.9,5.7c-4,11.6-8.6,23-13,34.4c-8.7,22.6-18,45.1-25.6,68.1
			c-0.4,1.3-1,2.5-1.2,3.9c-0.4,2.7-2.2,3.8-4.5,4.2c-7.7,1.3-15,0-21.9-3.6c-1.8-0.9-2.8-2.4-3.5-4.3c-3.9-12.5-6.8-25.2-9.8-37.9
			c-4.1-17.4-8.1-34.9-11.3-52.5c-0.4-2.3-0.7-4.7-1.1-7c-0.4-2.2,0.4-3.6,2.4-4.5c5.1-2.2,10.4-3.3,15.8-3.9
			c2.4-0.3,4.7-0.5,7.1-0.4c2.5,0.1,3.6,1.2,4,3.7c1.4,9.6,3,19.3,4.3,28.9c1.4,9.6,2.6,19.3,3.9,29
			C572.2,349.7,572.2,350,572.8,350z"/>
		<path id="XMLID_63_" class="st6" d="M321.1,324.3c0,2.5,0.4,5.3-0.9,7.5c-1.5,2.5-4.4,0.9-6.7,1.1c-7,0.6-13.6,2.4-19.1,6.9
			c-10.2,8.4-11.7,23.7-3.2,32.8c5.8,6.1,13.1,7.2,21,6c1.2-0.2,2.4-0.4,3.5-0.8c1.9-0.7,3.1,0.1,3.7,1.8c1.5,4,1.7,8.2,0.7,12.4
			c-0.3,1.2-1.1,2-2.1,2.8c-12.4,9.1-25.7,9.7-39.3,3.5c-15.2-6.9-25.4-18.7-27.3-35.4c-2.4-21.5,5.1-39.6,23.1-52.5
			c11.1-8,24-11,37.6-11.6c2.4-0.1,3.7,1.1,4.7,3c1.9,3.3,2.7,6.9,3.3,10.6C320.7,316.2,321.1,320.2,321.1,324.3z"/>
		<path id="XMLID_60_" class="st7" d="M652,366.1c3.7,12.1,13.1,17.2,25.1,13.7c3-0.9,3.8-0.6,5.3,2.2c0.3,0.6,0.5,1.1,0.8,1.7
			c2.6,6.4,2,8.4-3.9,11.7c-11.6,6.5-23.7,9.2-36.5,4.2c-13.5-5.2-21.1-15.5-22.5-29.8c-1.9-18.6,3-35.5,14.8-50.2
			c5-6.3,11.1-11.3,18.7-14.2c11.6-4.4,22.4-0.7,29,9.8c6.2,9.8,6.9,20.5,4.8,31.6c-0.5,2.8-1.5,5.5-2.1,8.3
			c-0.4,1.6-1.3,2.3-2.8,2.7c-9.7,2.5-19.3,5.1-28.9,7.6C653.2,365.6,652.6,365.9,652,366.1z M650,349.8c4.6-1.2,8.8-2.3,13-3.4
			c7.1-1.9,7.2-1.9,7.6-9.3c0.2-2.8,0.3-5.7-0.6-8.5c-1-3.1-3-4.3-6.1-3.7c-3,0.6-5.4,2.3-7.2,4.7C652,335.4,650.5,342.2,650,349.8z
			"/>
		<path id="XMLID_59_" class="st5" d="M333.5,352.4c0-14.3,0-28.7,0-43c0-2.1,0.9-3.1,2.8-3.4c8.2-1.2,16.3-0.8,24.2,1.7
			c1.7,0.5,2.5,1.4,2.3,3.5c-2.4,26.7-4.6,53.5-6.9,80.2c-0.1,0.8-0.2,1.6-0.3,2.4c-0.5,4.5-0.9,4.9-5.4,5.6c-4,0.6-8,0.7-12.1,0
			c-4.1-0.7-4.6-1.1-4.6-5.3C333.4,380.2,333.4,366.3,333.5,352.4C333.4,352.4,333.5,352.4,333.5,352.4z"/>
		<path id="XMLID_58_" class="st6" d="M494.4,352.1c0-14.3,0-28.5,0-42.8c0-2.1,0.9-3,2.8-3.4c4.8-1,9.6-0.7,14.4-0.3
			c3.3,0.3,6.6,0.8,9.7,2c1.7,0.6,2.4,1.6,2.3,3.5c-1.2,14-2.3,27.9-3.5,41.9c-1.2,13.7-2.5,27.3-3.7,40.9c-0.3,3.8-0.8,4.5-4.5,5.1
			c-4.2,0.8-8.5,0.9-12.8,0.2c-4.4-0.7-4.8-1.1-4.8-5.6c-0.1-11.3-0.1-22.7-0.2-34c0-2.5,0-5.1,0-7.6
			C494.2,352.1,494.3,352.1,494.4,352.1z"/>
		<path id="XMLID_57_" class="st6" d="M522.4,279.2c0.3,6.7-1.1,12.9-6.2,17.8c-4.9,4.7-10.9,4.2-15-1.1c-5.1-6.8-7.9-20.8,1.5-29
			c1.1-0.9,2.2-1.8,3.5-2.5c6.1-3.3,11.4-1.4,14.1,4.9C521.6,272.5,522.1,275.8,522.4,279.2z"/>
		<path id="XMLID_56_" class="st5" d="M335.7,279.7c-0.5-6.9,5.7-14.4,11.9-16.4c4.5-1.4,8.2-0.2,10.7,3.7
			c4.9,7.7,4.2,21.2-1.4,28.3c-0.9,1.1-1.9,2.1-3.1,2.9c-4.4,3-9.1,2.5-12.6-1.4C337.2,292.4,335.9,286.9,335.7,279.7z"/>
		<path id="XMLID_55_" class="st3" d="M650,349.8c0.6-7.5,2-14.4,6.7-20.2c1.9-2.4,4.2-4.1,7.2-4.7c3.2-0.6,5.1,0.5,6.1,3.7
			c0.9,2.8,0.7,5.6,0.6,8.5c-0.5,7.4-0.5,7.4-7.6,9.3C658.7,347.5,654.5,348.6,650,349.8z"/>
	</g>
	<g id="XMLID_35_">
		<path id="XMLID_192_" class="st3" d="M665.8,196.1c-4,0-6.8-2.7-6.7-6.7c0.1-3.5,3.2-6.6,6.7-6.6c3.5,0,6.7,3.1,6.8,6.6
			C672.7,193.3,669.9,196.1,665.8,196.1z"/>
		<g id="XMLID_40_">
			<path id="XMLID_196_" class="st1" d="M654.3,100.8c5.6,0.5,10.5,0.8,15.4,1.3c5.7,0.7,11.4,1.6,17.2,2.3c2.6,0.3,3.9,1,3.1,4.1
				c-2.2,9.2-4.5,18.5-6.1,27.8c-1.5,8.4-1.8,17.1-3.4,25.5c-2.1,11.1,1.8,20.8,6.3,30.4c10.6,22.6,21.7,45,32.2,67.6
				c1.9,4.1,2.9,8.7,3.6,13.2c0.8,4.6-1.7,7.7-6,8.9c-2.6,0.8-5.6,1.5-8.2,1.2c-15-2-29.9-4.4-44.9-6.5c-9.3-1.3-18.6-2-27.9-3.2
				c-8.4-1.1-16.9-2.5-25.3-3.6c-3.6-0.5-7.3-0.5-10.8-1.2c-5.8-1.3-11.8-2.5-17.3-4.8c-4.1-1.8-4.6-5.9-2.7-10.2
				c5.2-11.7,14.3-20.4,22.3-29.9c12.2-14.5,24.5-28.9,37.1-43c7.4-8.4,9.9-18.3,11.1-28.9c1.2-10.5,3-20.9,4-31.4
				C654.8,114.1,654.3,107.8,654.3,100.8z M694.7,275.1c11.7,1.1,19.4-6.2,15.5-16.5c-0.8-2.2-1.2-4.5-2.2-6.5
				c-6.2-13.3-12.4-26.6-18.9-39.7c-0.9-1.9-3.4-3.6-5.5-4.1c-5.4-1.4-11-2-16.5-3.1c-9.5-2-19-4.2-28.4-6.3
				c-3.7-0.9-6.7,0.1-9.1,3.2c-3.3,4.1-7.1,7.8-10.4,11.9c-8.2,10-16.9,19.7-24.3,30.4c-5.7,8.3-1.2,17.2,8.8,18.7
				c23.8,3.5,47.7,6.6,71.5,9.9C682.4,273.7,689.6,274.5,694.7,275.1z M665.8,196.1c4.1,0,6.9-2.9,6.7-6.8c-0.1-3.5-3.3-6.5-6.8-6.6
				c-3.5,0-6.6,3.1-6.7,6.6C659,193.4,661.8,196.2,665.8,196.1z"/>
			<g id="XMLID_39_">
				<path id="XMLID_185_" class="st1" d="M701.8,276.2c-10.8-1.4-20.1-2.6-29.4-3.9c-17.4-2.4-34.8-4.9-52.1-7.4
					c-6.6-1-13.3-1.9-19.9-3.1c-8.3-1.5-11.4-8.3-6.4-15.4c6.8-9.8,14.4-19.1,21.8-28.5c3.8-4.9,8.4-9.1,11.7-14.3
					c4-6.1,8.9-6.8,15-5.3c13,3.2,26.1,6.2,39.1,9.3c3.4,0.8,6,2.2,7.7,6.1c6.4,14.9,13.4,29.6,19.9,44.4c3.4,7.8,2,14.7-3.2,17
					C704.4,275.9,702.4,276.1,701.8,276.2z M609.4,243.4c0,7.3,5,12.6,11.9,12.6c7.2,0.1,12.2-5.2,12.2-12.8
					c0-7.3-5.1-12.8-11.8-12.8C614.8,230.4,609.4,236.1,609.4,243.4z M651.8,248.5c-4.6,0.1-7.1,3.1-6.9,8.2
					c0.2,4.5,3.1,7.5,7.2,7.4c4-0.1,7.5-4.1,7.3-8.3C659.2,251.8,655.7,248.4,651.8,248.5z M680.5,218.6c-3.8,0.1-7.3,3.7-7.4,7.6
					c-0.1,3.8,4.2,8.3,7.7,8c4.2-0.3,7.3-3.9,7.1-8.5C687.7,221.4,684.7,218.5,680.5,218.6z M663.2,213.9c-1.7-1.6-2.7-3.4-3.8-3.5
					c-1.1-0.1-3.1,1.7-3.1,2.7c-0.1,1.1,1.5,3.2,2.6,3.4C659.8,216.7,661.2,215.2,663.2,213.9z M667.4,235.8
					c-2.4-1.5-3.6-2.9-4.8-2.9c-0.9,0-2.8,2-2.7,2.6c0.4,1.3,1.7,3,2.8,3.2C663.8,238.8,665.1,237.3,667.4,235.8z"/>
				<path id="XMLID_184_" class="st3" d="M609.4,243.4c0-7.3,5.4-13,12.3-13c6.7,0,11.8,5.6,11.8,12.8c0,7.6-5,12.9-12.2,12.8
					C614.4,255.9,609.5,250.6,609.4,243.4z"/>
				<path id="XMLID_183_" class="st3" d="M651.8,248.5c3.9-0.1,7.5,3.2,7.7,7.3c0.2,4.2-3.3,8.2-7.3,8.3c-4.2,0.1-7.1-2.9-7.2-7.4
					C644.7,251.6,647.2,248.7,651.8,248.5z"/>
				<path id="XMLID_182_" class="st3" d="M680.5,218.6c4.2-0.1,7.2,2.8,7.4,7.2c0.2,4.5-2.8,8.2-7.1,8.5c-3.5,0.3-7.8-4.2-7.7-8
					C673.2,222.3,676.7,218.7,680.5,218.6z"/>
				<path id="XMLID_181_" class="st3" d="M663.2,213.9c-1.9,1.2-3.3,2.8-4.4,2.6c-1.1-0.2-2.7-2.3-2.6-3.4c0.1-1.1,2.1-2.8,3.1-2.7
					C660.4,210.5,661.5,212.3,663.2,213.9z"/>
				<path id="XMLID_180_" class="st3" d="M667.4,235.8c-2.3,1.5-3.7,3.1-4.7,2.9c-1.1-0.2-2.4-1.9-2.8-3.2c-0.2-0.5,1.7-2.6,2.7-2.6
					C663.8,232.9,665.1,234.2,667.4,235.8z"/>
			</g>
		</g>
	</g>
</g>
</svg>
