{
  "asset": {
    "version": "2.0",
    "generator": "Sketchup glTF Exporter v1.2.6 by Centaur"
  },
  "scene": 0,
  "scenes": [
    {
      "nodes": [
        0
      ]
    }
  ],
  "samplers": [
    {
    }
  ],
  "nodes": [
    {
      "name": "root",
      "mesh": 0
    }
  ],
  "materials": [
    {
      "pbrMetallicRoughness": {
        "baseColorFactor": [
          1.0,
          0.4535,
          0.1304,
          1.0
        ],
        "metallicFactor": 0.1,
        "roughnessFactor": 0.9
      },
      "name": "Color C03",
      "doubleSided": true
    }
  ],
  "meshes": [
    {
      "primitives": [
        {
          "attributes": {
            "POSITION": 0,
            "NORMAL": 1
          },
          "indices": 2,
          "mode": 4,
          "material": 0
        }
      ]
    }
  ],
  "accessors": [
    {
      "bufferView": 0,
      "componentType": 5126,
      "count": 6246,
      "type": "VEC3",
      "min": [
        -11.76958853188071,
        0.18157922668457027,
        -1.668324242971939
      ],
      "max": [
        7.585209142679835,
        8.594690893554688,
        2.0005570451750336
      ]
    },
    {
      "bufferView": 1,
      "componentType": 5126,
      "count": 6246,
      "type": "VEC3",
      "min": [
        -0.9972078762016539,
        -0.9994297831415819,
        -0.9994603492956333
      ],
      "max": [
        0.9996547959195706,
        0.9996527913661629,
        0.9994586663515784
      ]
    },
    {
      "bufferView": 2,
      "componentType": 5123,
      "count": 6246,
      "type": "SCALAR"
    }
  ],
  "bufferViews": [
    {
      "buffer": 0,
      "byteLength": 74952,
      "target": 34962,
      "byteStride": 12
    },
    {
      "buffer": 0,
      "byteOffset": 74952,
      "byteLength": 74952,
      "target": 34962,
      "byteStride": 12
    },
    {
      "buffer": 0,
      "byteOffset": 149904,
      "byteLength": 12492,
      "target": 34963
    }
  ],
  "buffers": [
    {
      "uri": "data:application/octet-stream;base64,",
      "byteLength": 162396
    }
  ]
}