{
  "asset": {
    "version": "2.0",
    "generator": "Sketchup glTF Exporter v1.2.6 by Centaur"
  },
  "scene": 0,
  "scenes": [
    {
      "nodes": [
        0
      ]
    }
  ],
  "samplers": [
    {
    }
  ],
  "nodes": [
    {
      "name": "root",
      "mesh": 0
    }
  ],
  "materials": [
    {
      "pbrMetallicRoughness": {
        "baseColorFactor": [
          1.0,
          0.4535,
          0.1304,
          1.0
        ],
        "metallicFactor": 0.1,
        "roughnessFactor": 0.9
      },
      "name": "Color C03"
    }
  ],
  "meshes": [
    {
      "primitives": [
        {
          "attributes": {
            "POSITION": 0,
            "NORMAL": 1
          },
          "indices": 2,
          "mode": 4,
          "material": 0
        }
      ]
    }
  ],
  "accessors": [
    {
      "bufferView": 0,
      "componentType": 5126,
      "count": 2802,
      "type": "VEC3",
      "min": [
        -0.37780969429003486,
        -0.00417361999999997,
        -1.692470580698473
      ],
      "max": [
        0.3967023057099656,
        1.8587400000000012,
        1.535869419301529
      ]
    },
    {
      "bufferView": 1,
      "componentType": 5126,
      "count": 2802,
      "type": "VEC3",
      "min": [
        -0.9990699136617249,
        -0.9983447916512018,
        -0.99465873164435
      ],
      "max": [
        0.9990699136617249,
        0.9993806356146071,
        0.996983021494721
      ]
    },
    {
      "bufferView": 2,
      "componentType": 5123,
      "count": 2856,
      "type": "SCALAR"
    }
  ],
  "bufferViews": [
    {
      "buffer": 0,
      "byteLength": 33624,
      "target": 34962,
      "byteStride": 12
    },
    {
      "buffer": 0,
      "byteOffset": 33624,
      "byteLength": 33624,
      "target": 34962,
      "byteStride": 12
    },
    {
      "buffer": 0,
      "byteOffset": 67248,
      "byteLength": 5712,
      "target": 34963
    }
  ],
  "buffers": [
    {
      "uri": "data:application/octet-stream;base64,",
      "byteLength": 72960
    }
  ]
}