{
  "asset": {
    "version": "2.0",
    "generator": "Sketchup glTF Exporter v1.2.6 by Centaur"
  },
  "scene": 0,
  "scenes": [
    {
      "nodes": [
        0
      ]
    }
  ],
  "samplers": [
    {
    }
  ],
  "nodes": [
    {
      "name": "root",
      "mesh": 0
    }
  ],
  "materials": [
    {
      "pbrMetallicRoughness": {
        "baseColorFactor": [
          1.0,
          0.4535,
          0.1304,
          1.0
        ],
        "metallicFactor": 0.1,
        "roughnessFactor": 0.9
      },
      "name": "Color C03"
    }
  ],
  "meshes": [
    {
      "primitives": [
        {
          "attributes": {
            "POSITION": 0,
            "NORMAL": 1
          },
          "indices": 2,
          "mode": 4,
          "material": 0
        }
      ]
    }
  ],
  "accessors": [
    {
      "bufferView": 0,
      "componentType": 5126,
      "count": 4364,
      "type": "VEC3",
      "min": [
        -0.019285275679315234,
        0.007203717707440645,
        -0.035470857795261775
      ],
      "max": [
        0.031340848414751106,
        0.09288335316070949,
        0.07307542577750678
      ]
    },
    {
      "bufferView": 1,
      "componentType": 5126,
      "count": 4364,
      "type": "VEC3",
      "min": [
        -0.9979233233269872,
        -0.9926227413319969,
        -0.9991652429845881
      ],
      "max": [
        0.9992169301824516,
        0.9995838404088304,
        0.9976411269996552
      ]
    },
    {
      "bufferView": 2,
      "componentType": 5123,
      "count": 4380,
      "type": "SCALAR"
    }
  ],
  "bufferViews": [
    {
      "buffer": 0,
      "byteLength": 52368,
      "target": 34962,
      "byteStride": 12
    },
    {
      "buffer": 0,
      "byteOffset": 52368,
      "byteLength": 52368,
      "target": 34962,
      "byteStride": 12
    },
    {
      "buffer": 0,
      "byteOffset": 104736,
      "byteLength": 8760,
      "target": 34963
    }
  ],
  "buffers": [
    {
      "uri": "data:application/octet-stream;base64,",
      "byteLength": 113496
    }
  ]
}