{
  "asset": {
    "version": "2.0",
    "generator": "Sketchup glTF Exporter v1.2.6 by Centaur"
  },
  "scene": 0,
  "scenes": [
    {
      "nodes": [
        0
      ]
    }
  ],
  "samplers": [
    {
    }
  ],
  "nodes": [
    {
      "name": "root",
      "children": [
        1,
        2,
        3
      ]
    },
    {
      "name": "Component",
      "mesh": 0
    },
    {
      "name": "Component1",
      "mesh": 1
    },
    {
      "name": "Component2",
      "mesh": 2
    }
  ],
  "materials": [
    {
      "pbrMetallicRoughness": {
        "baseColorFactor": [
          0.6121,
          0.325,
          0.0,
          1.0
        ],
        "metallicFactor": 0.1,
        "roughnessFactor": 0.9
      },
      "name": "<auto>"
    },
    {
      "pbrMetallicRoughness": {
        "baseColorTexture": {
          "index": 0
        },
        "metallicFactor": 0.1,
        "roughnessFactor": 0.9
      },
      "name": "<auto>1",
      "doubleSided": true
    },
    {
      "pbrMetallicRoughness": {
        "baseColorTexture": {
          "index": 1
        },
        "metallicFactor": 0.1,
        "roughnessFactor": 0.9
      },
      "name": "<auto>2"
    }
  ],
  "images": [
    {
      "bufferView": 0,
      "mimeType": "image/png"
    },
    {
      "bufferView": 1,
      "mimeType": "image/png"
    }
  ],
  "textures": [
    {
      "source": 0,
      "sampler": 0
    },
    {
      "source": 1,
      "sampler": 0
    }
  ],
  "meshes": [
    {
      "primitives": [
        {
          "attributes": {
            "POSITION": 0,
            "NORMAL": 1
          },
          "indices": 5,
          "mode": 4,
          "material": 0
        }
      ]
    },
    {
      "primitives": [
        {
          "attributes": {
            "POSITION": 2,
            "NORMAL": 3,
            "TEXCOORD_0": 4
          },
          "indices": 6,
          "mode": 4,
          "material": 1
        }
      ]
    },
    {
      "primitives": [
        {
          "attributes": {
            "POSITION": 2,
            "NORMAL": 3,
            "TEXCOORD_0": 4
          },
          "indices": 7,
          "mode": 4,
          "material": 2
        }
      ]
    }
  ],
  "accessors": [
    {
      "bufferView": 2,
      "componentType": 5126,
      "count": 358,
      "type": "VEC3",
      "min": [
        -0.1238135723164418,
        0.02591109879999986,
        -0.021213223213774886
      ],
      "max": [
        0.11618640488355826,
        0.2818221947999999,
        0.008786767586225196
      ]
    },
    {
      "bufferView": 3,
      "componentType": 5126,
      "count": 358,
      "type": "VEC3",
      "min": [
        -0.9914449315310693,
        -0.991444931531069,
        -1.0
      ],
      "max": [
        0.991444931531069,
        0.991444931531069,
        1.0
      ]
    },
    {
      "bufferView": 4,
      "componentType": 5126,
      "count": 28,
      "type": "VEC3",
      "min": [
        -0.10848830781844182,
        0.040169709855999845,
        -0.0012132225737748758
      ],
      "max": [
        0.10151167858155827,
        0.25217174787799995,
        0.003786777586225178
      ]
    },
    {
      "bufferView": 5,
      "componentType": 5126,
      "count": 28,
      "type": "VEC3",
      "min": [
        -2.4492935982947064e-16,
        1.8613243022769778e-16,
        1.0
      ],
      "max": [
        -2.4492935982947064e-16,
        1.8613243022769778e-16,
        1.0
      ]
    },
    {
      "bufferView": 6,
      "componentType": 5126,
      "count": 28,
      "type": "VEC2",
      "min": [
        0.426971,
        0.9857244167702726
      ],
      "max": [
        3.0120747677721695,
        2.003767016768588
      ]
    },
    {
      "bufferView": 7,
      "componentType": 5123,
      "count": 738,
      "type": "SCALAR"
    },
    {
      "bufferView": 8,
      "componentType": 5121,
      "count": 66,
      "type": "SCALAR"
    },
    {
      "bufferView": 8,
      "componentType": 5121,
      "count": 6,
      "type": "SCALAR",
      "byteOffset": 66
    }
  ],
  "bufferViews": [
    {
      "buffer": 0,
      "byteLength": 243371
    },
    {
      "buffer": 0,
      "byteOffset": 243371,
      "byteLength": 1006
    },
    {
      "buffer": 0,
      "byteOffset": 244380,
      "byteLength": 4296,
      "target": 34962,
      "byteStride": 12
    },
    {
      "buffer": 0,
      "byteOffset": 248676,
      "byteLength": 4296,
      "target": 34962,
      "byteStride": 12
    },
    {
      "buffer": 0,
      "byteOffset": 252972,
      "byteLength": 336,
      "target": 34962,
      "byteStride": 12
    },
    {
      "buffer": 0,
      "byteOffset": 253308,
      "byteLength": 336,
      "target": 34962,
      "byteStride": 12
    },
    {
      "buffer": 0,
      "byteOffset": 253648,
      "byteLength": 224,
      "target": 34962,
      "byteStride": 8
    },
    {
      "buffer": 0,
      "byteOffset": 253872,
      "byteLength": 1476,
      "target": 34963
    },
    {
      "buffer": 0,
      "byteOffset": 255348,
      "byteLength": 72,
      "target": 34963
    }
  ],
  "buffers": [
    {
      "uri": "data:application/octet-stream;base64,",
      "byteLength": 255420
    }
  ]
}