{
  "asset": {
    "version": "2.0",
    "generator": "Sketchup glTF Exporter v1.2.6 by Centaur"
  },
  "scene": 0,
  "scenes": [
    {
      "nodes": [
        0
      ]
    }
  ],
  "samplers": [
    {
    }
  ],
  "nodes": [
    {
      "name": "root",
      "children": [
        1
      ]
    },
    {
      "name": "Component#1",
      "mesh": 0
    }
  ],
  "materials": [
    {
      "pbrMetallicRoughness": {
        "baseColorFactor": [
          0.1275,
          0.3066,
          0.8513,
          0.5
        ],
        "metallicFactor": 0.1,
        "roughnessFactor": 0.9
      },
      "name": "Translucent Glass Blue",
      "alphaMode": "BLEND"
    }
  ],
  "meshes": [
    {
      "primitives": [
        {
          "attributes": {
            "POSITION": 0,
            "NORMAL": 1
          },
          "indices": 2,
          "mode": 4,
          "material": 0
        }
      ]
    }
  ],
  "accessors": [
    {
      "bufferView": 0,
      "componentType": 5126,
      "count": 598,
      "type": "VEC3",
      "min": [
        -0.2118570196207282,
        -1.4753396759550854,
        -0.24517683752189978
      ],
      "max": [
        3.409089276499046,
        4.9161638134783265,
        1.3176235054549112
      ]
    },
    {
      "bufferView": 1,
      "componentType": 5126,
      "count": 598,
      "type": "VEC3",
      "min": [
        -0.9971038413671063,
        -0.9975094212041102,
        -0.9994693020421297
      ],
      "max": [
        0.9937344071825707,
        0.9221996313924047,
        0.9994693020369758
      ]
    },
    {
      "bufferView": 2,
      "componentType": 5123,
      "count": 2568,
      "type": "SCALAR"
    }
  ],
  "bufferViews": [
    {
      "buffer": 0,
      "byteLength": 7176,
      "target": 34962,
      "byteStride": 12
    },
    {
      "buffer": 0,
      "byteOffset": 7176,
      "byteLength": 7176,
      "target": 34962,
      "byteStride": 12
    },
    {
      "buffer": 0,
      "byteOffset": 14352,
      "byteLength": 5136,
      "target": 34963
    }
  ],
  "buffers": [
    {
      "uri": "data:application/octet-stream;base64,",
      "byteLength": 19488
    }
  ]
}