{
  "asset": {
    "version": "2.0",
    "generator": "Sketchup glTF Exporter v1.2.6 by Centaur"
  },
  "scene": 0,
  "scenes": [
    {
      "nodes": [
        0
      ]
    }
  ],
  "samplers": [
    {
    }
  ],
  "nodes": [
    {
      "name": "root",
      "children": [
        1,
        2,
        3,
        4,
        5,
        6
      ],
      "mesh": 6
    },
    {
      "mesh": 0
    },
    {
      "mesh": 1
    },
    {
      "mesh": 2
    },
    {
      "mesh": 3
    },
    {
      "mesh": 4
    },
    {
      "mesh": 5
    }
  ],
  "materials": [
    {
      "pbrMetallicRoughness": {
        "baseColorFactor": [
          0.2195,
          0.2195,
          0.2195,
          0.1
        ],
        "metallicFactor": 0.1,
        "roughnessFactor": 0.9
      },
      "name": "Translucent_Glass_Gray",
      "doubleSided": true,
      "alphaMode": "BLEND"
    },
    {
      "pbrMetallicRoughness": {
        "baseColorTexture": {
          "index": 0
        },
        "metallicFactor": 0.1,
        "roughnessFactor": 0.9
      },
      "name": "Formica Laminate Light"
    }
  ],
  "images": [
    {
      "bufferView": 0,
      "mimeType": "image/jpeg"
    }
  ],
  "textures": [
    {
      "source": 0,
      "sampler": 0
    }
  ],
  "meshes": [
    {
      "primitives": [
        {
          "attributes": {
            "POSITION": 0,
            "NORMAL": 1
          },
          "indices": 5,
          "mode": 4,
          "material": 0
        }
      ]
    },
    {
      "primitives": [
        {
          "attributes": {
            "POSITION": 0,
            "NORMAL": 1
          },
          "indices": 6,
          "mode": 4,
          "material": 0
        }
      ]
    },
    {
      "primitives": [
        {
          "attributes": {
            "POSITION": 0,
            "NORMAL": 1
          },
          "indices": 7,
          "mode": 4,
          "material": 0
        }
      ]
    },
    {
      "primitives": [
        {
          "attributes": {
            "POSITION": 0,
            "NORMAL": 1
          },
          "indices": 8,
          "mode": 4,
          "material": 0
        }
      ]
    },
    {
      "primitives": [
        {
          "attributes": {
            "POSITION": 0,
            "NORMAL": 1
          },
          "indices": 9,
          "mode": 4,
          "material": 0
        }
      ]
    },
    {
      "primitives": [
        {
          "attributes": {
            "POSITION": 0,
            "NORMAL": 1
          },
          "indices": 10,
          "mode": 4,
          "material": 0
        }
      ]
    },
    {
      "primitives": [
        {
          "attributes": {
            "POSITION": 2,
            "NORMAL": 3,
            "TEXCOORD_0": 4
          },
          "indices": 11,
          "mode": 4,
          "material": 1
        }
      ]
    }
  ],
  "accessors": [
    {
      "bufferView": 1,
      "componentType": 5126,
      "count": 21174,
      "type": "VEC3",
      "min": [
        -0.03640000000000032,
        0.00420095161987254,
        -0.3008444444444444
      ],
      "max": [
        -0.003599999999999046,
        0.20499999999999982,
        -0.09026666666666644
      ]
    },
    {
      "bufferView": 2,
      "componentType": 5126,
      "count": 21174,
      "type": "VEC3",
      "min": [
        -1.0,
        -0.9997620270799078,
        -1.0
      ],
      "max": [
        1.0,
        1.0,
        1.0
      ]
    },
    {
      "bufferView": 3,
      "componentType": 5126,
      "count": 11640,
      "type": "VEC3",
      "min": [
        -0.04000000000000109,
        -1.9594348786357697e-17,
        -0.32000000000000073
      ],
      "max": [
        -2.819966482547894e-17,
        0.18799999999999972,
        -1.3535839116229907e-16
      ]
    },
    {
      "bufferView": 4,
      "componentType": 5126,
      "count": 11640,
      "type": "VEC3",
      "min": [
        -0.7071067811865486,
        -0.7377002341847366,
        -0.7071067811865486
      ],
      "max": [
        0.7071067811865486,
        1.0,
        0.7071067811865486
      ]
    },
    {
      "bufferView": 5,
      "componentType": 5126,
      "count": 11640,
      "type": "VEC2",
      "min": [
        -0.34995625546806725,
        0.6500437445319327
      ],
      "max": [
        0.34995625546806636,
        1.3111098123032292
      ]
    },
    {
      "bufferView": 6,
      "componentType": 5123,
      "count": 21096,
      "type": "SCALAR"
    },
    {
      "bufferView": 6,
      "componentType": 5123,
      "count": 21096,
      "type": "SCALAR",
      "byteOffset": 42192
    },
    {
      "bufferView": 6,
      "componentType": 5123,
      "count": 21096,
      "type": "SCALAR",
      "byteOffset": 84384
    },
    {
      "bufferView": 6,
      "componentType": 5123,
      "count": 21096,
      "type": "SCALAR",
      "byteOffset": 126576
    },
    {
      "bufferView": 6,
      "componentType": 5123,
      "count": 21096,
      "type": "SCALAR",
      "byteOffset": 168768
    },
    {
      "bufferView": 6,
      "componentType": 5123,
      "count": 21096,
      "type": "SCALAR",
      "byteOffset": 210960
    },
    {
      "bufferView": 7,
      "componentType": 5123,
      "count": 18888,
      "type": "SCALAR"
    }
  ],
  "bufferViews": [
    {
      "buffer": 0,
      "byteLength": 51775
    },
    {
      "buffer": 0,
      "byteOffset": 51780,
      "byteLength": 254088,
      "target": 34962,
      "byteStride": 12
    },
    {
      "buffer": 0,
      "byteOffset": 305868,
      "byteLength": 254088,
      "target": 34962,
      "byteStride": 12
    },
    {
      "buffer": 0,
      "byteOffset": 559956,
      "byteLength": 139680,
      "target": 34962,
      "byteStride": 12
    },
    {
      "buffer": 0,
      "byteOffset": 699636,
      "byteLength": 139680,
      "target": 34962,
      "byteStride": 12
    },
    {
      "buffer": 0,
      "byteOffset": 839320,
      "byteLength": 93120,
      "target": 34962,
      "byteStride": 8
    },
    {
      "buffer": 0,
      "byteOffset": 932440,
      "byteLength": 253152,
      "target": 34963
    },
    {
      "buffer": 0,
      "byteOffset": 1185592,
      "byteLength": 37776,
      "target": 34963
    }
  ],
  "buffers": [
    {
      "uri": "data:application/octet-stream;base64,",
      "byteLength": 1223368
    }
  ]
}