{
  "asset": {
    "version": "2.0",
    "generator": "Sketchup glTF Exporter v1.2.6 by Centaur"
  },
  "scene": 0,
  "scenes": [
    {
      "nodes": [
        0
      ]
    }
  ],
  "samplers": [
    {
    }
  ],
  "nodes": [
    {
      "name": "root",
      "mesh": 0
    }
  ],
  "materials": [
    {
      "pbrMetallicRoughness": {
        "baseColorTexture": {
          "index": 0
        },
        "metallicFactor": 0.1,
        "roughnessFactor": 0.9
      },
      "name": "Translucent Glass Tinted",
      "doubleSided": true,
      "alphaMode": "BLEND"
    }
  ],
  "images": [
    {
      "bufferView": 0,
      "mimeType": "image/jpeg"
    }
  ],
  "textures": [
    {
      "source": 0,
      "sampler": 0
    }
  ],
  "meshes": [
    {
      "primitives": [
        {
          "attributes": {
            "POSITION": 0,
            "NORMAL": 1,
            "TEXCOORD_0": 2
          },
          "indices": 3,
          "mode": 4,
          "material": 0
        }
      ]
    }
  ],
  "accessors": [
    {
      "bufferView": 1,
      "componentType": 5126,
      "count": 674,
      "type": "VEC3",
      "min": [
        6.123233995736768e-15,
        -3.630000000000006,
        -49.99999999999999
      ],
      "max": [
        50.00000000000001,
        89.99999999999999,
        6.345507389782011e-15
      ]
    },
    {
      "bufferView": 2,
      "componentType": 5126,
      "count": 674,
      "type": "VEC3",
      "min": [
        -1.0,
        -0.9999976911162656,
        -0.972826855951733
      ],
      "max": [
        1.0,
        1.0,
        0.9744800072629295
      ]
    },
    {
      "bufferView": 3,
      "componentType": 5126,
      "count": 674,
      "type": "VEC2",
      "min": [
        -82.02099737532808,
        -146.63779527559052
      ],
      "max": [
        63.367213158337066,
        65.89261193480606
      ]
    },
    {
      "bufferView": 4,
      "componentType": 5123,
      "count": 1044,
      "type": "SCALAR"
    }
  ],
  "bufferViews": [
    {
      "buffer": 0,
      "byteLength": 3287
    },
    {
      "buffer": 0,
      "byteOffset": 3288,
      "byteLength": 8088,
      "target": 34962,
      "byteStride": 12
    },
    {
      "buffer": 0,
      "byteOffset": 11376,
      "byteLength": 8088,
      "target": 34962,
      "byteStride": 12
    },
    {
      "buffer": 0,
      "byteOffset": 19464,
      "byteLength": 5392,
      "target": 34962,
      "byteStride": 8
    },
    {
      "buffer": 0,
      "byteOffset": 24856,
      "byteLength": 2088,
      "target": 34963
    }
  ],
  "buffers": [
    {
      "uri": "data:application/octet-stream;base64,",
      "byteLength": 26944
    }
  ]
}