{
  "asset": {
    "version": "2.0",
    "generator": "Sketchup glTF Exporter v1.2.6 by Centaur"
  },
  "scene": 0,
  "scenes": [
    {
      "nodes": [
        0
      ]
    }
  ],
  "samplers": [
    {
    }
  ],
  "nodes": [
    {
      "name": "root",
      "children": [
        1
      ]
    },
    {
      "name": "组件#21",
      "children": [
        2,
        4,
        5,
        6,
        7,
        8,
        9
      ]
    },
    {
      "name": "组件#4",
      "children": [
        3
      ]
    },
    {
      "name": "组件#8",
      "mesh": 0
    },
    {
      "name": "组件#10",
      "mesh": 1
    },
    {
      "name": "组件#9",
      "mesh": 2
    },
    {
      "name": "组件#11",
      "mesh": 3
    },
    {
      "name": "组件#19",
      "mesh": 4
    },
    {
      "name": "组件#5",
      "mesh": 5
    },
    {
      "name": "组件#20",
      "mesh": 6
    }
  ],
  "materials": [
    {
      "pbrMetallicRoughness": {
        "baseColorFactor": [
          0.2176,
          0.2176,
          0.2176,
          1.0
        ],
        "metallicFactor": 0.1,
        "roughnessFactor": 0.9
      },
      "name": "default material",
      "doubleSided": true
    },
    {
      "pbrMetallicRoughness": {
        "baseColorFactor": [
          0.5732,
          0.5732,
          0.5732,
          1.0
        ],
        "metallicFactor": 0.1,
        "roughnessFactor": 0.9
      },
      "name": "Color M02"
    },
    {
      "pbrMetallicRoughness": {
        "baseColorFactor": [
          0.0385,
          0.0385,
          0.0385,
          1.0
        ],
        "metallicFactor": 0.1,
        "roughnessFactor": 0.9
      },
      "name": "Color M07"
    },
    {
      "pbrMetallicRoughness": {
        "baseColorFactor": [
          1.0,
          1.0,
          1.0,
          1.0
        ],
        "metallicFactor": 0.1,
        "roughnessFactor": 0.9
      },
      "name": "Color M00"
    },
    {
      "pbrMetallicRoughness": {
        "baseColorFactor": [
          0.6121,
          0.0,
          0.0,
          1.0
        ],
        "metallicFactor": 0.1,
        "roughnessFactor": 0.9
      },
      "name": "Color A06"
    },
    {
      "pbrMetallicRoughness": {
        "baseColorFactor": [
          0.2195,
          0.2195,
          0.2195,
          0.5
        ],
        "metallicFactor": 0.1,
        "roughnessFactor": 0.9
      },
      "name": "Translucent Glass Gray",
      "alphaMode": "BLEND"
    }
  ],
  "meshes": [
    {
      "primitives": [
        {
          "attributes": {
            "POSITION": 0,
            "NORMAL": 1
          },
          "indices": 2,
          "mode": 4,
          "material": 0
        }
      ]
    },
    {
      "primitives": [
        {
          "attributes": {
            "POSITION": 0,
            "NORMAL": 1
          },
          "indices": 3,
          "mode": 4,
          "material": 1
        }
      ]
    },
    {
      "primitives": [
        {
          "attributes": {
            "POSITION": 0,
            "NORMAL": 1
          },
          "indices": 4,
          "mode": 4,
          "material": 1
        }
      ]
    },
    {
      "primitives": [
        {
          "attributes": {
            "POSITION": 0,
            "NORMAL": 1
          },
          "indices": 5,
          "mode": 4,
          "material": 2
        },
        {
          "attributes": {
            "POSITION": 0,
            "NORMAL": 1
          },
          "indices": 6,
          "mode": 4,
          "material": 3
        }
      ]
    },
    {
      "primitives": [
        {
          "attributes": {
            "POSITION": 0,
            "NORMAL": 1
          },
          "indices": 7,
          "mode": 4,
          "material": 0
        },
        {
          "attributes": {
            "POSITION": 0,
            "NORMAL": 1
          },
          "indices": 8,
          "mode": 4,
          "material": 4
        }
      ]
    },
    {
      "primitives": [
        {
          "attributes": {
            "POSITION": 0,
            "NORMAL": 1
          },
          "indices": 9,
          "mode": 4,
          "material": 1
        }
      ]
    },
    {
      "primitives": [
        {
          "attributes": {
            "POSITION": 0,
            "NORMAL": 1
          },
          "indices": 10,
          "mode": 4,
          "material": 5
        }
      ]
    }
  ],
  "accessors": [
    {
      "bufferView": 0,
      "componentType": 5126,
      "count": 10594,
      "type": "VEC3",
      "min": [
        -0.01782812549264552,
        -6.73451968539062e-19,
        -0.01785833897573051
      ],
      "max": [
        0.01782812549264552,
        0.3198,
        0.01785833897573048
      ]
    },
    {
      "bufferView": 1,
      "componentType": 5126,
      "count": 10594,
      "type": "VEC3",
      "min": [
        -1.0,
        -1.0,
        -1.0
      ],
      "max": [
        1.0,
        1.0,
        1.0
      ]
    },
    {
      "bufferView": 2,
      "componentType": 5123,
      "count": 3708,
      "type": "SCALAR"
    },
    {
      "bufferView": 2,
      "componentType": 5123,
      "count": 13914,
      "type": "SCALAR",
      "byteOffset": 7416
    },
    {
      "bufferView": 2,
      "componentType": 5123,
      "count": 4794,
      "type": "SCALAR",
      "byteOffset": 35244
    },
    {
      "bufferView": 2,
      "componentType": 5123,
      "count": 3408,
      "type": "SCALAR",
      "byteOffset": 44832
    },
    {
      "bufferView": 2,
      "componentType": 5123,
      "count": 4026,
      "type": "SCALAR",
      "byteOffset": 51648
    },
    {
      "bufferView": 2,
      "componentType": 5123,
      "count": 390,
      "type": "SCALAR",
      "byteOffset": 59700
    },
    {
      "bufferView": 2,
      "componentType": 5123,
      "count": 96,
      "type": "SCALAR",
      "byteOffset": 60480
    },
    {
      "bufferView": 2,
      "componentType": 5123,
      "count": 558,
      "type": "SCALAR",
      "byteOffset": 60672
    },
    {
      "bufferView": 2,
      "componentType": 5123,
      "count": 489,
      "type": "SCALAR",
      "byteOffset": 61788
    }
  ],
  "bufferViews": [
    {
      "buffer": 0,
      "byteLength": 127128,
      "target": 34962,
      "byteStride": 12
    },
    {
      "buffer": 0,
      "byteOffset": 127128,
      "byteLength": 127128,
      "target": 34962,
      "byteStride": 12
    },
    {
      "buffer": 0,
      "byteOffset": 254256,
      "byteLength": 62766,
      "target": 34963
    }
  ],
  "buffers": [
    {
      "uri": "data:application/octet-stream;base64,",
      "byteLength": 317022
    }
  ]
}