{
  "asset": {
    "version": "2.0",
    "generator": "Sketchup glTF Exporter v1.2.6 by Centaur"
  },
  "scene": 0,
  "scenes": [
    {
      "nodes": [
        0
      ]
    }
  ],
  "samplers": [
    {
    }
  ],
  "nodes": [
    {
      "name": "root",
      "mesh": 0
    }
  ],
  "materials": [
    {
      "pbrMetallicRoughness": {
        "baseColorTexture": {
          "index": 0
        },
        "metallicFactor": 0.1,
        "roughnessFactor": 0.9
      },
      "name": "Fencing Picket Concave",
      "doubleSided": true
    }
  ],
  "images": [
    {
      "bufferView": 0,
      "mimeType": "image/png"
    }
  ],
  "textures": [
    {
      "source": 0,
      "sampler": 0
    }
  ],
  "meshes": [
    {
      "primitives": [
        {
          "attributes": {
            "POSITION": 0,
            "NORMAL": 1,
            "TEXCOORD_0": 2
          },
          "indices": 3,
          "mode": 4,
          "material": 0
        }
      ]
    }
  ],
  "accessors": [
    {
      "bufferView": 1,
      "componentType": 5126,
      "count": 293,
      "type": "VEC3",
      "min": [
        -6.562500000000002,
        -4.018372309702254e-16,
        -6.562500000000002
      ],
      "max": [
        6.562500000000002,
        4.018372309702254e-16,
        6.562500000000002
      ]
    },
    {
      "bufferView": 2,
      "componentType": 5126,
      "count": 293,
      "type": "VEC3",
      "min": [
        -7.498798913309288e-33,
        -1.0,
        6.123233995736766e-17
      ],
      "max": [
        -7.498798913309288e-33,
        -1.0,
        6.123233995736766e-17
      ]
    },
    {
      "bufferView": 3,
      "componentType": 5126,
      "count": 293,
      "type": "VEC2",
      "min": [
        -4.306102362204725,
        -5.1515748031496065
      ],
      "max": [
        4.306102362204725,
        7.1515748031496065
      ]
    },
    {
      "bufferView": 4,
      "componentType": 5123,
      "count": 1584,
      "type": "SCALAR"
    }
  ],
  "bufferViews": [
    {
      "buffer": 0,
      "byteLength": 44051
    },
    {
      "buffer": 0,
      "byteOffset": 44052,
      "byteLength": 3516,
      "target": 34962,
      "byteStride": 12
    },
    {
      "buffer": 0,
      "byteOffset": 47568,
      "byteLength": 3516,
      "target": 34962,
      "byteStride": 12
    },
    {
      "buffer": 0,
      "byteOffset": 51088,
      "byteLength": 2344,
      "target": 34962,
      "byteStride": 8
    },
    {
      "buffer": 0,
      "byteOffset": 53432,
      "byteLength": 3168,
      "target": 34963
    }
  ],
  "buffers": [
    {
      "uri": "data:application/octet-stream;base64,",
      "byteLength": 56600
    }
  ]
}