{
  "asset": {
    "version": "2.0",
    "generator": "Sketchup glTF Exporter v1.2.6 by Centaur"
  },
  "scene": 0,
  "scenes": [
    {
      "nodes": [
        0
      ]
    }
  ],
  "samplers": [
    {
    }
  ],
  "nodes": [
    {
      "name": "root",
      "children": [
        1
      ]
    },
    {
      "name": "Component#1",
      "mesh": 0
    }
  ],
  "materials": [
    {
      "pbrMetallicRoughness": {
        "baseColorTexture": {
          "index": 0
        },
        "metallicFactor": 0.1,
        "roughnessFactor": 0.9
      },
      "name": "Translucent Glass Tinted",
      "alphaMode": "BLEND"
    }
  ],
  "images": [
    {
      "bufferView": 0,
      "mimeType": "image/jpeg"
    }
  ],
  "textures": [
    {
      "source": 0,
      "sampler": 0
    }
  ],
  "meshes": [
    {
      "primitives": [
        {
          "attributes": {
            "POSITION": 0,
            "NORMAL": 1,
            "TEXCOORD_0": 2
          },
          "indices": 3,
          "mode": 4,
          "material": 0
        }
      ]
    }
  ],
  "accessors": [
    {
      "bufferView": 1,
      "componentType": 5126,
      "count": 968,
      "type": "VEC3",
      "min": [
        -25.491594337645353,
        -12.902201703610823,
        -24.4612633733414
      ],
      "max": [
        20.655600155731953,
        38.89273486995319,
        17.6021797056574
      ]
    },
    {
      "bufferView": 2,
      "componentType": 5126,
      "count": 968,
      "type": "VEC3",
      "min": [
        -0.9914448613738104,
        -0.9914448613738105,
        -1.0
      ],
      "max": [
        0.9914448613738104,
        0.8187571510878139,
        1.0
      ]
    },
    {
      "bufferView": 3,
      "componentType": 5126,
      "count": 968,
      "type": "VEC2",
      "min": [
        -1870.07874015748,
        -1669.330979180821
      ],
      "max": [
        1870.07874015748,
        829.0205330511558
      ]
    },
    {
      "bufferView": 4,
      "componentType": 5123,
      "count": 1878,
      "type": "SCALAR"
    }
  ],
  "bufferViews": [
    {
      "buffer": 0,
      "byteLength": 3287
    },
    {
      "buffer": 0,
      "byteOffset": 3288,
      "byteLength": 11616,
      "target": 34962,
      "byteStride": 12
    },
    {
      "buffer": 0,
      "byteOffset": 14904,
      "byteLength": 11616,
      "target": 34962,
      "byteStride": 12
    },
    {
      "buffer": 0,
      "byteOffset": 26520,
      "byteLength": 7744,
      "target": 34962,
      "byteStride": 8
    },
    {
      "buffer": 0,
      "byteOffset": 34264,
      "byteLength": 3756,
      "target": 34963
    }
  ],
  "buffers": [
    {
      "uri": "data:application/octet-stream;base64,",
      "byteLength": 38020
    }
  ]
}