{
  "asset": {
    "version": "2.0",
    "generator": "Sketchup glTF Exporter v1.2.6 by Centaur"
  },
  "scene": 0,
  "scenes": [
    {
      "nodes": [
        0
      ]
    }
  ],
  "samplers": [
    {
    }
  ],
  "nodes": [
    {
      "name": "root",
      "mesh": 0
    }
  ],
  "materials": [
    {
      "pbrMetallicRoughness": {
        "baseColorFactor": [
          0.2176,
          0.2176,
          0.2176,
          1.0
        ],
        "metallicFactor": 0.1,
        "roughnessFactor": 0.9
      },
      "name": "default material",
      "doubleSided": true
    },
    {
      "pbrMetallicRoughness": {
        "baseColorFactor": [
          0.009,
          0.009,
          0.009,
          1.0
        ],
        "metallicFactor": 0.1,
        "roughnessFactor": 0.9
      },
      "name": "Color M08"
    },
    {
      "pbrMetallicRoughness": {
        "baseColorFactor": [
          0.1701,
          0.1701,
          0.1701,
          1.0
        ],
        "metallicFactor": 0.1,
        "roughnessFactor": 0.9
      },
      "name": "Color M05"
    },
    {
      "pbrMetallicRoughness": {
        "baseColorFactor": [
          0.2758,
          0.2758,
          0.2758,
          1.0
        ],
        "metallicFactor": 0.1,
        "roughnessFactor": 0.9
      },
      "name": "Color M04"
    },
    {
      "pbrMetallicRoughness": {
        "baseColorTexture": {
          "index": 0
        },
        "roughnessFactor": 0.1
      },
      "name": "Metal Aluminum Anodized"
    },
    {
      "pbrMetallicRoughness": {
        "baseColorTexture": {
          "index": 1
        },
        "metallicFactor": 0.1,
        "roughnessFactor": 0.9
      },
      "name": "Aluminum"
    }
  ],
  "images": [
    {
      "bufferView": 0,
      "mimeType": "image/jpeg"
    },
    {
      "bufferView": 1,
      "mimeType": "image/jpeg"
    }
  ],
  "textures": [
    {
      "source": 0,
      "sampler": 0
    },
    {
      "source": 1,
      "sampler": 0
    }
  ],
  "meshes": [
    {
      "primitives": [
        {
          "attributes": {
            "POSITION": 0,
            "NORMAL": 1
          },
          "indices": 5,
          "mode": 4,
          "material": 0
        },
        {
          "attributes": {
            "POSITION": 0,
            "NORMAL": 1
          },
          "indices": 6,
          "mode": 4,
          "material": 1
        },
        {
          "attributes": {
            "POSITION": 0,
            "NORMAL": 1
          },
          "indices": 7,
          "mode": 4,
          "material": 2
        },
        {
          "attributes": {
            "POSITION": 0,
            "NORMAL": 1
          },
          "indices": 8,
          "mode": 4,
          "material": 3
        },
        {
          "attributes": {
            "POSITION": 2,
            "NORMAL": 3,
            "TEXCOORD_0": 4
          },
          "indices": 9,
          "mode": 4,
          "material": 4
        },
        {
          "attributes": {
            "POSITION": 2,
            "NORMAL": 3,
            "TEXCOORD_0": 4
          },
          "indices": 10,
          "mode": 4,
          "material": 5
        }
      ]
    }
  ],
  "accessors": [
    {
      "bufferView": 2,
      "componentType": 5126,
      "count": 136,
      "type": "VEC3",
      "min": [
        -0.0024261579011372056,
        -2.0899363031699047e-16,
        -3.413125
      ],
      "max": [
        2.9384625000000004,
        0.40640000000000015,
        7.197157390079059e-16
      ]
    },
    {
      "bufferView": 3,
      "componentType": 5126,
      "count": 136,
      "type": "VEC3",
      "min": [
        -1.0,
        -1.0,
        -1.0
      ],
      "max": [
        0.9983613119198983,
        1.0,
        1.0
      ]
    },
    {
      "bufferView": 4,
      "componentType": 5126,
      "count": 116,
      "type": "VEC3",
      "min": [
        1.2900054713243647,
        0.4063999999999998,
        -2.80412923383872
      ],
      "max": [
        1.5750680393523226,
        12.372975,
        -2.519066665810761
      ]
    },
    {
      "bufferView": 5,
      "componentType": 5126,
      "count": 116,
      "type": "VEC3",
      "min": [
        -0.9975942888117502,
        -6.108503263204949e-17,
        -0.9975942888117499
      ],
      "max": [
        0.9975942888117502,
        1.0,
        0.9975942888117502
      ]
    },
    {
      "bufferView": 6,
      "componentType": 5126,
      "count": 116,
      "type": "VEC2",
      "min": [
        -4.440892098500626e-16,
        -6.852083333333334
      ],
      "max": [
        1.1483435690815995,
        1.0
      ]
    },
    {
      "bufferView": 7,
      "componentType": 5121,
      "count": 12,
      "type": "SCALAR"
    },
    {
      "bufferView": 7,
      "componentType": 5121,
      "count": 84,
      "type": "SCALAR",
      "byteOffset": 12
    },
    {
      "bufferView": 7,
      "componentType": 5121,
      "count": 207,
      "type": "SCALAR",
      "byteOffset": 96
    },
    {
      "bufferView": 7,
      "componentType": 5121,
      "count": 69,
      "type": "SCALAR",
      "byteOffset": 303
    },
    {
      "bufferView": 8,
      "componentType": 5121,
      "count": 66,
      "type": "SCALAR"
    },
    {
      "bufferView": 8,
      "componentType": 5121,
      "count": 144,
      "type": "SCALAR",
      "byteOffset": 66
    }
  ],
  "bufferViews": [
    {
      "buffer": 0,
      "byteLength": 2508
    },
    {
      "buffer": 0,
      "byteOffset": 2508,
      "byteLength": 12471
    },
    {
      "buffer": 0,
      "byteOffset": 14988,
      "byteLength": 1632,
      "target": 34962,
      "byteStride": 12
    },
    {
      "buffer": 0,
      "byteOffset": 16620,
      "byteLength": 1632,
      "target": 34962,
      "byteStride": 12
    },
    {
      "buffer": 0,
      "byteOffset": 18252,
      "byteLength": 1392,
      "target": 34962,
      "byteStride": 12
    },
    {
      "buffer": 0,
      "byteOffset": 19644,
      "byteLength": 1392,
      "target": 34962,
      "byteStride": 12
    },
    {
      "buffer": 0,
      "byteOffset": 21040,
      "byteLength": 928,
      "target": 34962,
      "byteStride": 8
    },
    {
      "buffer": 0,
      "byteOffset": 21968,
      "byteLength": 372,
      "target": 34963
    },
    {
      "buffer": 0,
      "byteOffset": 22340,
      "byteLength": 210,
      "target": 34963
    }
  ],
  "buffers": [
    {
      "uri": "data:application/octet-stream;base64,",
      "byteLength": 22550
    }
  ]
}