{
  "asset": {
    "version": "2.0",
    "generator": "Sketchup glTF Exporter v1.2.6 by Centaur"
  },
  "scene": 0,
  "scenes": [
    {
      "nodes": [
        0
      ]
    }
  ],
  "samplers": [
    {
    }
  ],
  "nodes": [
    {
      "name": "root",
      "children": [
        1,
        2,
        3,
        4,
        5,
        6
      ]
    },
    {
      "mesh": 0
    },
    {
      "mesh": 1
    },
    {
      "mesh": 2
    },
    {
      "mesh": 3
    },
    {
      "mesh": 4
    },
    {
      "mesh": 5
    }
  ],
  "materials": [
    {
      "pbrMetallicRoughness": {
        "baseColorFactor": [
          0.009,
          0.009,
          0.009,
          1.0
        ],
        "metallicFactor": 0.1,
        "roughnessFactor": 0.9
      },
      "name": "Color M08"
    },
    {
      "pbrMetallicRoughness": {
        "baseColorFactor": [
          0.0915,
          0.0915,
          0.0915,
          1.0
        ],
        "metallicFactor": 0.1,
        "roughnessFactor": 0.9
      },
      "name": "Color M06"
    },
    {
      "pbrMetallicRoughness": {
        "baseColorFactor": [
          0.2758,
          0.2758,
          0.2758,
          1.0
        ],
        "metallicFactor": 0.1,
        "roughnessFactor": 0.9
      },
      "name": "Color M04"
    }
  ],
  "meshes": [
    {
      "primitives": [
        {
          "attributes": {
            "POSITION": 0,
            "NORMAL": 1
          },
          "indices": 2,
          "mode": 4,
          "material": 0
        },
        {
          "attributes": {
            "POSITION": 0,
            "NORMAL": 1
          },
          "indices": 3,
          "mode": 4,
          "material": 1
        },
        {
          "attributes": {
            "POSITION": 0,
            "NORMAL": 1
          },
          "indices": 4,
          "mode": 4,
          "material": 2
        }
      ]
    },
    {
      "primitives": [
        {
          "attributes": {
            "POSITION": 0,
            "NORMAL": 1
          },
          "indices": 5,
          "mode": 4,
          "material": 0
        },
        {
          "attributes": {
            "POSITION": 0,
            "NORMAL": 1
          },
          "indices": 6,
          "mode": 4,
          "material": 1
        },
        {
          "attributes": {
            "POSITION": 0,
            "NORMAL": 1
          },
          "indices": 7,
          "mode": 4,
          "material": 2
        }
      ]
    },
    {
      "primitives": [
        {
          "attributes": {
            "POSITION": 0,
            "NORMAL": 1
          },
          "indices": 8,
          "mode": 4,
          "material": 0
        },
        {
          "attributes": {
            "POSITION": 0,
            "NORMAL": 1
          },
          "indices": 9,
          "mode": 4,
          "material": 1
        },
        {
          "attributes": {
            "POSITION": 0,
            "NORMAL": 1
          },
          "indices": 10,
          "mode": 4,
          "material": 2
        }
      ]
    },
    {
      "primitives": [
        {
          "attributes": {
            "POSITION": 0,
            "NORMAL": 1
          },
          "indices": 11,
          "mode": 4,
          "material": 0
        },
        {
          "attributes": {
            "POSITION": 0,
            "NORMAL": 1
          },
          "indices": 12,
          "mode": 4,
          "material": 1
        },
        {
          "attributes": {
            "POSITION": 0,
            "NORMAL": 1
          },
          "indices": 13,
          "mode": 4,
          "material": 2
        }
      ]
    },
    {
      "primitives": [
        {
          "attributes": {
            "POSITION": 0,
            "NORMAL": 1
          },
          "indices": 14,
          "mode": 4,
          "material": 0
        },
        {
          "attributes": {
            "POSITION": 0,
            "NORMAL": 1
          },
          "indices": 15,
          "mode": 4,
          "material": 1
        },
        {
          "attributes": {
            "POSITION": 0,
            "NORMAL": 1
          },
          "indices": 16,
          "mode": 4,
          "material": 2
        }
      ]
    },
    {
      "primitives": [
        {
          "attributes": {
            "POSITION": 0,
            "NORMAL": 1
          },
          "indices": 17,
          "mode": 4,
          "material": 0
        },
        {
          "attributes": {
            "POSITION": 0,
            "NORMAL": 1
          },
          "indices": 18,
          "mode": 4,
          "material": 1
        },
        {
          "attributes": {
            "POSITION": 0,
            "NORMAL": 1
          },
          "indices": 19,
          "mode": 4,
          "material": 2
        }
      ]
    }
  ],
  "accessors": [
    {
      "bufferView": 0,
      "componentType": 5126,
      "count": 3240,
      "type": "VEC3",
      "min": [
        1.6272689647093728,
        -3.4768196468334094e-14,
        -2.2990208954227143
      ],
      "max": [
        6.0320341409543925,
        0.5864851918429707,
        -1.2758033629739576
      ]
    },
    {
      "bufferView": 1,
      "componentType": 5126,
      "count": 3240,
      "type": "VEC3",
      "min": [
        -0.9999739535192005,
        -0.31408395706425024,
        -0.9999728387391915
      ],
      "max": [
        0.9999739535192005,
        1.0,
        0.9999728387391915
      ]
    },
    {
      "bufferView": 2,
      "componentType": 5123,
      "count": 798,
      "type": "SCALAR"
    },
    {
      "bufferView": 2,
      "componentType": 5123,
      "count": 222,
      "type": "SCALAR",
      "byteOffset": 1596
    },
    {
      "bufferView": 2,
      "componentType": 5123,
      "count": 576,
      "type": "SCALAR",
      "byteOffset": 2040
    },
    {
      "bufferView": 2,
      "componentType": 5123,
      "count": 504,
      "type": "SCALAR",
      "byteOffset": 3192
    },
    {
      "bufferView": 2,
      "componentType": 5123,
      "count": 144,
      "type": "SCALAR",
      "byteOffset": 4200
    },
    {
      "bufferView": 2,
      "componentType": 5123,
      "count": 288,
      "type": "SCALAR",
      "byteOffset": 4488
    },
    {
      "bufferView": 2,
      "componentType": 5123,
      "count": 798,
      "type": "SCALAR",
      "byteOffset": 5064
    },
    {
      "bufferView": 2,
      "componentType": 5123,
      "count": 222,
      "type": "SCALAR",
      "byteOffset": 6660
    },
    {
      "bufferView": 2,
      "componentType": 5123,
      "count": 576,
      "type": "SCALAR",
      "byteOffset": 7104
    },
    {
      "bufferView": 2,
      "componentType": 5123,
      "count": 504,
      "type": "SCALAR",
      "byteOffset": 8256
    },
    {
      "bufferView": 2,
      "componentType": 5123,
      "count": 144,
      "type": "SCALAR",
      "byteOffset": 9264
    },
    {
      "bufferView": 2,
      "componentType": 5123,
      "count": 288,
      "type": "SCALAR",
      "byteOffset": 9552
    },
    {
      "bufferView": 2,
      "componentType": 5123,
      "count": 504,
      "type": "SCALAR",
      "byteOffset": 10128
    },
    {
      "bufferView": 2,
      "componentType": 5123,
      "count": 144,
      "type": "SCALAR",
      "byteOffset": 11136
    },
    {
      "bufferView": 2,
      "componentType": 5123,
      "count": 288,
      "type": "SCALAR",
      "byteOffset": 11424
    },
    {
      "bufferView": 2,
      "componentType": 5123,
      "count": 798,
      "type": "SCALAR",
      "byteOffset": 12000
    },
    {
      "bufferView": 2,
      "componentType": 5123,
      "count": 222,
      "type": "SCALAR",
      "byteOffset": 13596
    },
    {
      "bufferView": 2,
      "componentType": 5123,
      "count": 576,
      "type": "SCALAR",
      "byteOffset": 14040
    }
  ],
  "bufferViews": [
    {
      "buffer": 0,
      "byteLength": 38880,
      "target": 34962,
      "byteStride": 12
    },
    {
      "buffer": 0,
      "byteOffset": 38880,
      "byteLength": 38880,
      "target": 34962,
      "byteStride": 12
    },
    {
      "buffer": 0,
      "byteOffset": 77760,
      "byteLength": 15192,
      "target": 34963
    }
  ],
  "buffers": [
    {
      "uri": "data:application/octet-stream;base64,",
      "byteLength": 92952
    }
  ]
}