{
  "asset": {
    "version": "2.0",
    "generator": "Sketchup glTF Exporter v1.2.6 by Centaur"
  },
  "scene": 0,
  "scenes": [
    {
      "nodes": [
        0
      ]
    }
  ],
  "samplers": [
    {
    }
  ],
  "nodes": [
    {
      "name": "root",
      "mesh": 0
    }
  ],
  "materials": [
    {
      "pbrMetallicRoughness": {
        "baseColorFactor": [
          0.3787,
          0.0002,
          0.0014,
          1.0
        ],
        "metallicFactor": 0.1,
        "roughnessFactor": 0.9
      },
      "name": "Material7"
    },
    {
      "pbrMetallicRoughness": {
        "baseColorFactor": [
          0.2158,
          0.0,
          0.0003,
          1.0
        ],
        "metallicFactor": 0.1,
        "roughnessFactor": 0.9
      },
      "name": "Material2"
    },
    {
      "pbrMetallicRoughness": {
        "baseColorFactor": [
          0.2158,
          0.0001,
          0.0029,
          1.0
        ],
        "metallicFactor": 0.1,
        "roughnessFactor": 0.9
      },
      "name": "Material4"
    },
    {
      "pbrMetallicRoughness": {
        "baseColorFactor": [
          0.2176,
          0.2176,
          0.2176,
          1.0
        ],
        "metallicFactor": 0.1,
        "roughnessFactor": 0.9
      },
      "name": "default material",
      "doubleSided": true
    },
    {
      "pbrMetallicRoughness": {
        "baseColorFactor": [
          0.2158,
          0.0759,
          0.009,
          1.0
        ],
        "metallicFactor": 0.1,
        "roughnessFactor": 0.9
      },
      "name": "Material3"
    },
    {
      "pbrMetallicRoughness": {
        "baseColorFactor": [
          0.2158,
          0.1573,
          0.1304,
          1.0
        ],
        "metallicFactor": 0.1,
        "roughnessFactor": 0.9
      },
      "name": "Material5"
    },
    {
      "pbrMetallicRoughness": {
        "baseColorFactor": [
          0.3787,
          0.2758,
          0.2271,
          1.0
        ],
        "metallicFactor": 0.1,
        "roughnessFactor": 0.9
      },
      "name": "Material6"
    }
  ],
  "meshes": [
    {
      "primitives": [
        {
          "attributes": {
            "POSITION": 0,
            "NORMAL": 1
          },
          "indices": 2,
          "mode": 4,
          "material": 0
        },
        {
          "attributes": {
            "POSITION": 0,
            "NORMAL": 1
          },
          "indices": 3,
          "mode": 4,
          "material": 1
        },
        {
          "attributes": {
            "POSITION": 0,
            "NORMAL": 1
          },
          "indices": 4,
          "mode": 4,
          "material": 2
        },
        {
          "attributes": {
            "POSITION": 0,
            "NORMAL": 1
          },
          "indices": 5,
          "mode": 4,
          "material": 3
        },
        {
          "attributes": {
            "POSITION": 0,
            "NORMAL": 1
          },
          "indices": 6,
          "mode": 4,
          "material": 4
        },
        {
          "attributes": {
            "POSITION": 0,
            "NORMAL": 1
          },
          "indices": 7,
          "mode": 4,
          "material": 5
        },
        {
          "attributes": {
            "POSITION": 0,
            "NORMAL": 1
          },
          "indices": 8,
          "mode": 4,
          "material": 6
        }
      ]
    }
  ],
  "accessors": [
    {
      "bufferView": 0,
      "componentType": 5126,
      "count": 1184,
      "type": "VEC3",
      "min": [
        6.123233995736766e-15,
        4.999999999999997,
        -49.99999999999999
      ],
      "max": [
        50.00000000000001,
        69.99999999999999,
        5.8170722959499274e-15
      ]
    },
    {
      "bufferView": 1,
      "componentType": 5126,
      "count": 1184,
      "type": "VEC3",
      "min": [
        -1.0,
        -1.0,
        -1.0
      ],
      "max": [
        1.0,
        1.0,
        1.0
      ]
    },
    {
      "bufferView": 2,
      "componentType": 5123,
      "count": 66,
      "type": "SCALAR"
    },
    {
      "bufferView": 2,
      "componentType": 5123,
      "count": 300,
      "type": "SCALAR",
      "byteOffset": 132
    },
    {
      "bufferView": 2,
      "componentType": 5123,
      "count": 324,
      "type": "SCALAR",
      "byteOffset": 732
    },
    {
      "bufferView": 2,
      "componentType": 5123,
      "count": 2157,
      "type": "SCALAR",
      "byteOffset": 1380
    },
    {
      "bufferView": 2,
      "componentType": 5123,
      "count": 162,
      "type": "SCALAR",
      "byteOffset": 5694
    },
    {
      "bufferView": 2,
      "componentType": 5123,
      "count": 1140,
      "type": "SCALAR",
      "byteOffset": 6018
    },
    {
      "bufferView": 2,
      "componentType": 5123,
      "count": 864,
      "type": "SCALAR",
      "byteOffset": 8298
    }
  ],
  "bufferViews": [
    {
      "buffer": 0,
      "byteLength": 14208,
      "target": 34962,
      "byteStride": 12
    },
    {
      "buffer": 0,
      "byteOffset": 14208,
      "byteLength": 14208,
      "target": 34962,
      "byteStride": 12
    },
    {
      "buffer": 0,
      "byteOffset": 28416,
      "byteLength": 10026,
      "target": 34963
    }
  ],
  "buffers": [
    {
      "uri": "data:application/octet-stream;base64,",
      "byteLength": 38442
    }
  ]
}