{
  "asset": {
    "version": "2.0",
    "generator": "Sketchup glTF Exporter v1.2.6 by Centaur"
  },
  "scene": 0,
  "scenes": [
    {
      "nodes": [
        0
      ]
    }
  ],
  "samplers": [
    {
    }
  ],
  "nodes": [
    {
      "name": "root",
      "mesh": 0
    }
  ],
  "materials": [
    {
      "pbrMetallicRoughness": {
        "baseColorTexture": {
          "index": 0
        },
        "metallicFactor": 0.1,
        "roughnessFactor": 0.9
      },
      "name": "Terrazzo Tile Light",
      "doubleSided": true
    }
  ],
  "images": [
    {
      "bufferView": 0,
      "mimeType": "image/jpeg"
    }
  ],
  "textures": [
    {
      "source": 0,
      "sampler": 0
    }
  ],
  "meshes": [
    {
      "primitives": [
        {
          "attributes": {
            "POSITION": 0,
            "NORMAL": 1,
            "TEXCOORD_0": 2
          },
          "indices": 3,
          "mode": 4,
          "material": 0
        }
      ]
    }
  ],
  "accessors": [
    {
      "bufferView": 1,
      "componentType": 5126,
      "count": 46359,
      "type": "VEC3",
      "min": [
        0.40543624838759906,
        0.13123279626850817,
        -0.6022473362757448
      ],
      "max": [
        1.3499447215811768,
        3.0750609308614103,
        0.007544182833497648
      ]
    },
    {
      "bufferView": 2,
      "componentType": 5126,
      "count": 46359,
      "type": "VEC3",
      "min": [
        -0.9996210006879503,
        -0.9999785706439681,
        -0.9998660537282139
      ],
      "max": [
        0.9994606345707695,
        0.9994931786567249,
        0.9999909577187429
      ]
    },
    {
      "bufferView": 3,
      "componentType": 5126,
      "count": 46359,
      "type": "VEC2",
      "min": [
        -2.3753512614208487,
        -4.11599849458149
      ],
      "max": [
        2.368739961640039,
        2.9284581561611818
      ]
    },
    {
      "bufferView": 4,
      "componentType": 5123,
      "count": 48267,
      "type": "SCALAR"
    }
  ],
  "bufferViews": [
    {
      "buffer": 0,
      "byteLength": 22515
    },
    {
      "buffer": 0,
      "byteOffset": 22524,
      "byteLength": 556308,
      "target": 34962,
      "byteStride": 12
    },
    {
      "buffer": 0,
      "byteOffset": 578832,
      "byteLength": 556308,
      "target": 34962,
      "byteStride": 12
    },
    {
      "buffer": 0,
      "byteOffset": 1135144,
      "byteLength": 370872,
      "target": 34962,
      "byteStride": 8
    },
    {
      "buffer": 0,
      "byteOffset": 1506016,
      "byteLength": 96534,
      "target": 34963
    }
  ],
  "buffers": [
    {
      "uri": "data:application/octet-stream;base64,",
      "byteLength": 1602550
    }
  ]
}