{
  "asset": {
    "version": "2.0",
    "generator": "Sketchup glTF Exporter v1.2.6 by Centaur"
  },
  "scene": 0,
  "scenes": [
    {
      "nodes": [
        0
      ]
    }
  ],
  "samplers": [
    {
    }
  ],
  "nodes": [
    {
      "name": "root",
      "children": [
        1
      ]
    },
    {
      "name": "Component#1",
      "mesh": 0
    }
  ],
  "materials": [
    {
      "pbrMetallicRoughness": {
        "baseColorFactor": [
          1.0,
          0.6121,
          0.6121,
          1.0
        ],
        "metallicFactor": 0.1,
        "roughnessFactor": 0.9
      },
      "name": "Color A01",
      "doubleSided": true
    },
    {
      "pbrMetallicRoughness": {
        "baseColorFactor": [
          1.0,
          0.7742,
          0.7519,
          1.0
        ],
        "metallicFactor": 0.1,
        "roughnessFactor": 0.9
      },
      "name": "<auto>",
      "doubleSided": true
    }
  ],
  "meshes": [
    {
      "primitives": [
        {
          "attributes": {
            "POSITION": 0,
            "NORMAL": 1
          },
          "indices": 2,
          "mode": 4,
          "material": 0
        },
        {
          "attributes": {
            "POSITION": 0,
            "NORMAL": 1
          },
          "indices": 3,
          "mode": 4,
          "material": 1
        }
      ]
    }
  ],
  "accessors": [
    {
      "bufferView": 0,
      "componentType": 5126,
      "count": 20550,
      "type": "VEC3",
      "min": [
        1.087213156391958,
        0.5908254629999992,
        -5.002041963114889
      ],
      "max": [
        4.89469480367404,
        4.004496825255001,
        -1.9536233344880878
      ]
    },
    {
      "bufferView": 1,
      "componentType": 5126,
      "count": 20550,
      "type": "VEC3",
      "min": [
        -0.9999909542454092,
        -0.9999565271460085,
        -0.9999999999387836
      ],
      "max": [
        0.9999008319248724,
        0.9999969868077001,
        0.9999999997394009
      ]
    },
    {
      "bufferView": 2,
      "componentType": 5123,
      "count": 110397,
      "type": "SCALAR"
    },
    {
      "bufferView": 2,
      "componentType": 5123,
      "count": 3,
      "type": "SCALAR",
      "byteOffset": 220794
    }
  ],
  "bufferViews": [
    {
      "buffer": 0,
      "byteLength": 246600,
      "target": 34962,
      "byteStride": 12
    },
    {
      "buffer": 0,
      "byteOffset": 246600,
      "byteLength": 246600,
      "target": 34962,
      "byteStride": 12
    },
    {
      "buffer": 0,
      "byteOffset": 493200,
      "byteLength": 220800,
      "target": 34963
    }
  ],
  "buffers": [
    {
      "uri": "data:application/octet-stream;base64,",
      "byteLength": 714000
    }
  ]
}