{
  "asset": {
    "version": "2.0",
    "generator": "Sketchup glTF Exporter v1.2.6 by Centaur"
  },
  "scene": 0,
  "scenes": [
    {
      "nodes": [
        0
      ]
    }
  ],
  "samplers": [
    {
    }
  ],
  "nodes": [
    {
      "name": "root",
      "children": [
        1,
        2,
        3,
        4,
        5,
        6,
        7,
        8
      ],
      "mesh": 8
    },
    {
      "mesh": 0
    },
    {
      "mesh": 1
    },
    {
      "mesh": 2
    },
    {
      "mesh": 3
    },
    {
      "mesh": 4
    },
    {
      "mesh": 5
    },
    {
      "mesh": 6
    },
    {
      "mesh": 7
    }
  ],
  "materials": [
    {
      "pbrMetallicRoughness": {
        "baseColorTexture": {
          "index": 0
        },
        "metallicFactor": 0.1,
        "roughnessFactor": 0.9
      },
      "name": "Water Stream"
    },
    {
      "pbrMetallicRoughness": {
        "baseColorFactor": [
          1.0,
          0.6121,
          0.325,
          1.0
        ],
        "metallicFactor": 0.1,
        "roughnessFactor": 0.9
      },
      "name": "Color C02"
    }
  ],
  "images": [
    {
      "bufferView": 0,
      "mimeType": "image/jpeg"
    }
  ],
  "textures": [
    {
      "source": 0,
      "sampler": 0
    }
  ],
  "meshes": [
    {
      "primitives": [
        {
          "attributes": {
            "POSITION": 2,
            "NORMAL": 3,
            "TEXCOORD_0": 4
          },
          "indices": 5,
          "mode": 4,
          "material": 0
        }
      ]
    },
    {
      "primitives": [
        {
          "attributes": {
            "POSITION": 2,
            "NORMAL": 3,
            "TEXCOORD_0": 4
          },
          "indices": 6,
          "mode": 4,
          "material": 0
        }
      ]
    },
    {
      "primitives": [
        {
          "attributes": {
            "POSITION": 0,
            "NORMAL": 1
          },
          "indices": 7,
          "mode": 4,
          "material": 1
        }
      ]
    },
    {
      "primitives": [
        {
          "attributes": {
            "POSITION": 0,
            "NORMAL": 1
          },
          "indices": 8,
          "mode": 4,
          "material": 1
        }
      ]
    },
    {
      "primitives": [
        {
          "attributes": {
            "POSITION": 0,
            "NORMAL": 1
          },
          "indices": 9,
          "mode": 4,
          "material": 1
        }
      ]
    },
    {
      "primitives": [
        {
          "attributes": {
            "POSITION": 0,
            "NORMAL": 1
          },
          "indices": 10,
          "mode": 4,
          "material": 1
        }
      ]
    },
    {
      "primitives": [
        {
          "attributes": {
            "POSITION": 0,
            "NORMAL": 1
          },
          "indices": 11,
          "mode": 4,
          "material": 1
        }
      ]
    },
    {
      "primitives": [
        {
          "attributes": {
            "POSITION": 0,
            "NORMAL": 1
          },
          "indices": 12,
          "mode": 4,
          "material": 1
        }
      ]
    },
    {
      "primitives": [
        {
          "attributes": {
            "POSITION": 2,
            "NORMAL": 3,
            "TEXCOORD_0": 4
          },
          "indices": 13,
          "mode": 4,
          "material": 0
        }
      ]
    }
  ],
  "accessors": [
    {
      "bufferView": 1,
      "componentType": 5126,
      "count": 5136,
      "type": "VEC3",
      "min": [
        569.3010447950198,
        -85.6471345396294,
        -1190.8861638991573
      ],
      "max": [
        976.6066511959201,
        66.21286546037062,
        -960.6751638991548
      ]
    },
    {
      "bufferView": 2,
      "componentType": 5126,
      "count": 5136,
      "type": "VEC3",
      "min": [
        -1.0,
        -0.9964972858691599,
        -1.0
      ],
      "max": [
        1.0,
        0.99649728586916,
        1.0
      ]
    },
    {
      "bufferView": 3,
      "componentType": 5126,
      "count": 21558,
      "type": "VEC3",
      "min": [
        177.37787032218003,
        -98.30937630865402,
        -1561.8344160942004
      ],
      "max": [
        1459.6380398108004,
        323.34744104883896,
        -714.43844909586
      ]
    },
    {
      "bufferView": 4,
      "componentType": 5126,
      "count": 21558,
      "type": "VEC3",
      "min": [
        -0.9697009101413995,
        -0.9999984341765432,
        -1.0
      ],
      "max": [
        0.9717678686450645,
        0.9999971709592875,
        1.0
      ]
    },
    {
      "bufferView": 5,
      "componentType": 5126,
      "count": 21558,
      "type": "VEC2",
      "min": [
        -63957.31778203517,
        -58480.519239832574
      ],
      "max": [
        56859.09313366825,
        65317.48886089505
      ]
    },
    {
      "bufferView": 7,
      "componentType": 5123,
      "count": 10722,
      "type": "SCALAR"
    },
    {
      "bufferView": 7,
      "componentType": 5123,
      "count": 10722,
      "type": "SCALAR",
      "byteOffset": 21444
    },
    {
      "bufferView": 6,
      "componentType": 5123,
      "count": 4932,
      "type": "SCALAR"
    },
    {
      "bufferView": 6,
      "componentType": 5123,
      "count": 4932,
      "type": "SCALAR",
      "byteOffset": 9864
    },
    {
      "bufferView": 6,
      "componentType": 5123,
      "count": 4932,
      "type": "SCALAR",
      "byteOffset": 19728
    },
    {
      "bufferView": 6,
      "componentType": 5123,
      "count": 4932,
      "type": "SCALAR",
      "byteOffset": 29592
    },
    {
      "bufferView": 6,
      "componentType": 5123,
      "count": 4932,
      "type": "SCALAR",
      "byteOffset": 39456
    },
    {
      "bufferView": 6,
      "componentType": 5123,
      "count": 4932,
      "type": "SCALAR",
      "byteOffset": 49320
    },
    {
      "bufferView": 7,
      "componentType": 5123,
      "count": 1080,
      "type": "SCALAR",
      "byteOffset": 42888
    }
  ],
  "bufferViews": [
    {
      "buffer": 0,
      "byteLength": 29660
    },
    {
      "buffer": 0,
      "byteOffset": 29664,
      "byteLength": 61632,
      "target": 34962,
      "byteStride": 12
    },
    {
      "buffer": 0,
      "byteOffset": 91296,
      "byteLength": 61632,
      "target": 34962,
      "byteStride": 12
    },
    {
      "buffer": 0,
      "byteOffset": 152928,
      "byteLength": 258696,
      "target": 34962,
      "byteStride": 12
    },
    {
      "buffer": 0,
      "byteOffset": 411624,
      "byteLength": 258696,
      "target": 34962,
      "byteStride": 12
    },
    {
      "buffer": 0,
      "byteOffset": 670320,
      "byteLength": 172464,
      "target": 34962,
      "byteStride": 8
    },
    {
      "buffer": 0,
      "byteOffset": 842784,
      "byteLength": 59184,
      "target": 34963
    },
    {
      "buffer": 0,
      "byteOffset": 901968,
      "byteLength": 45048,
      "target": 34963
    }
  ],
  "buffers": [
    {
      "uri": "data:application/octet-stream;base64,",
      "byteLength": 947016
    }
  ]
}