{
  "asset": {
    "version": "2.0",
    "generator": "Sketchup glTF Exporter v1.2.6 by Centaur"
  },
  "scene": 0,
  "scenes": [
    {
      "nodes": [
        0
      ]
    }
  ],
  "samplers": [
    {
    }
  ],
  "nodes": [
    {
      "name": "root",
      "mesh": 0
    }
  ],
  "materials": [
    {
      "pbrMetallicRoughness": {
        "baseColorFactor": [
          0.0342,
          0.0697,
          0.0017,
          1.0
        ],
        "metallicFactor": 0.1,
        "roughnessFactor": 0.9
      },
      "name": "<auto>"
    },
    {
      "pbrMetallicRoughness": {
        "baseColorFactor": [
          0.0869,
          0.2011,
          0.0987,
          1.0
        ],
        "metallicFactor": 0.1,
        "roughnessFactor": 0.9
      },
      "name": "<auto>1"
    },
    {
      "pbrMetallicRoughness": {
        "baseColorFactor": [
          0.0127,
          0.0041,
          0.0564,
          1.0
        ],
        "metallicFactor": 0.1,
        "roughnessFactor": 0.9
      },
      "name": "<auto>2"
    },
    {
      "pbrMetallicRoughness": {
        "baseColorFactor": [
          0.0385,
          0.0738,
          0.3736,
          1.0
        ],
        "metallicFactor": 0.1,
        "roughnessFactor": 0.9
      },
      "name": "<auto>3"
    },
    {
      "pbrMetallicRoughness": {
        "baseColorFactor": [
          0.0119,
          0.344,
          0.3736,
          1.0
        ],
        "metallicFactor": 0.1,
        "roughnessFactor": 0.9
      },
      "name": "<auto>4"
    },
    {
      "pbrMetallicRoughness": {
        "baseColorFactor": [
          0.0006,
          0.3112,
          0.3736,
          1.0
        ],
        "metallicFactor": 0.1,
        "roughnessFactor": 0.9
      },
      "name": "<auto>5"
    },
    {
      "pbrMetallicRoughness": {
        "baseColorFactor": [
          0.3736,
          0.0915,
          0.0,
          1.0
        ],
        "metallicFactor": 0.1,
        "roughnessFactor": 0.9
      },
      "name": "<auto>8"
    },
    {
      "pbrMetallicRoughness": {
        "baseColorFactor": [
          0.0029,
          0.0915,
          0.0869,
          1.0
        ],
        "metallicFactor": 0.1,
        "roughnessFactor": 0.9
      },
      "name": "<auto>6"
    },
    {
      "pbrMetallicRoughness": {
        "baseColorFactor": [
          0.0152,
          0.0677,
          0.0012,
          1.0
        ],
        "metallicFactor": 0.1,
        "roughnessFactor": 0.9
      },
      "name": "<auto>7"
    },
    {
      "pbrMetallicRoughness": {
        "baseColorFactor": [
          0.3736,
          0.148,
          0.0,
          1.0
        ],
        "metallicFactor": 0.1,
        "roughnessFactor": 0.9
      },
      "name": "<auto>9"
    },
    {
      "pbrMetallicRoughness": {
        "baseColorFactor": [
          0.6121,
          0.3392,
          0.002,
          1.0
        ],
        "metallicFactor": 0.1,
        "roughnessFactor": 0.9
      },
      "name": "<auto>10"
    },
    {
      "pbrMetallicRoughness": {
        "baseColorFactor": [
          0.3736,
          0.0033,
          0.002,
          1.0
        ],
        "metallicFactor": 0.1,
        "roughnessFactor": 0.9
      },
      "name": "<auto>11"
    },
    {
      "pbrMetallicRoughness": {
        "baseColorFactor": [
          0.0869,
          0.3838,
          0.5795,
          1.0
        ],
        "metallicFactor": 0.1,
        "roughnessFactor": 0.9
      },
      "name": "<auto>12"
    },
    {
      "pbrMetallicRoughness": {
        "baseColorFactor": [
          0.3736,
          0.0564,
          0.0759,
          1.0
        ],
        "metallicFactor": 0.1,
        "roughnessFactor": 0.9
      },
      "name": "<auto>13"
    },
    {
      "pbrMetallicRoughness": {
        "baseColorFactor": [
          0.0023,
          0.0242,
          0.0006,
          1.0
        ],
        "metallicFactor": 0.1,
        "roughnessFactor": 0.9
      },
      "name": "<auto>14"
    }
  ],
  "meshes": [
    {
      "primitives": [
        {
          "attributes": {
            "POSITION": 0,
            "NORMAL": 1
          },
          "indices": 2,
          "mode": 4,
          "material": 0
        },
        {
          "attributes": {
            "POSITION": 0,
            "NORMAL": 1
          },
          "indices": 3,
          "mode": 4,
          "material": 1
        },
        {
          "attributes": {
            "POSITION": 0,
            "NORMAL": 1
          },
          "indices": 4,
          "mode": 4,
          "material": 2
        },
        {
          "attributes": {
            "POSITION": 0,
            "NORMAL": 1
          },
          "indices": 5,
          "mode": 4,
          "material": 3
        },
        {
          "attributes": {
            "POSITION": 0,
            "NORMAL": 1
          },
          "indices": 6,
          "mode": 4,
          "material": 4
        },
        {
          "attributes": {
            "POSITION": 0,
            "NORMAL": 1
          },
          "indices": 7,
          "mode": 4,
          "material": 5
        },
        {
          "attributes": {
            "POSITION": 0,
            "NORMAL": 1
          },
          "indices": 8,
          "mode": 4,
          "material": 6
        },
        {
          "attributes": {
            "POSITION": 0,
            "NORMAL": 1
          },
          "indices": 9,
          "mode": 4,
          "material": 7
        },
        {
          "attributes": {
            "POSITION": 0,
            "NORMAL": 1
          },
          "indices": 10,
          "mode": 4,
          "material": 8
        },
        {
          "attributes": {
            "POSITION": 0,
            "NORMAL": 1
          },
          "indices": 11,
          "mode": 4,
          "material": 9
        },
        {
          "attributes": {
            "POSITION": 0,
            "NORMAL": 1
          },
          "indices": 12,
          "mode": 4,
          "material": 10
        },
        {
          "attributes": {
            "POSITION": 0,
            "NORMAL": 1
          },
          "indices": 13,
          "mode": 4,
          "material": 11
        },
        {
          "attributes": {
            "POSITION": 0,
            "NORMAL": 1
          },
          "indices": 14,
          "mode": 4,
          "material": 12
        },
        {
          "attributes": {
            "POSITION": 0,
            "NORMAL": 1
          },
          "indices": 15,
          "mode": 4,
          "material": 13
        },
        {
          "attributes": {
            "POSITION": 0,
            "NORMAL": 1
          },
          "indices": 16,
          "mode": 4,
          "material": 14
        }
      ]
    }
  ],
  "accessors": [
    {
      "bufferView": 0,
      "componentType": 5126,
      "count": 7316,
      "type": "VEC3",
      "min": [
        -1.1952325760435627,
        -0.43376935329092314,
        -1.0000000000000004
      ],
      "max": [
        1.4781734239564388,
        0.8488544367090773,
        1.0000000000000004
      ]
    },
    {
      "bufferView": 1,
      "componentType": 5126,
      "count": 7316,
      "type": "VEC3",
      "min": [
        -1.0,
        -1.0,
        -1.0
      ],
      "max": [
        0.999999999999997,
        1.0,
        1.0
      ]
    },
    {
      "bufferView": 2,
      "componentType": 5123,
      "count": 1380,
      "type": "SCALAR"
    },
    {
      "bufferView": 2,
      "componentType": 5123,
      "count": 3321,
      "type": "SCALAR",
      "byteOffset": 2760
    },
    {
      "bufferView": 2,
      "componentType": 5123,
      "count": 1548,
      "type": "SCALAR",
      "byteOffset": 9402
    },
    {
      "bufferView": 2,
      "componentType": 5123,
      "count": 900,
      "type": "SCALAR",
      "byteOffset": 12498
    },
    {
      "bufferView": 2,
      "componentType": 5123,
      "count": 6024,
      "type": "SCALAR",
      "byteOffset": 14298
    },
    {
      "bufferView": 2,
      "componentType": 5123,
      "count": 2400,
      "type": "SCALAR",
      "byteOffset": 26346
    },
    {
      "bufferView": 2,
      "componentType": 5123,
      "count": 2424,
      "type": "SCALAR",
      "byteOffset": 31146
    },
    {
      "bufferView": 2,
      "componentType": 5123,
      "count": 4812,
      "type": "SCALAR",
      "byteOffset": 35994
    },
    {
      "bufferView": 2,
      "componentType": 5123,
      "count": 2892,
      "type": "SCALAR",
      "byteOffset": 45618
    },
    {
      "bufferView": 2,
      "componentType": 5123,
      "count": 2430,
      "type": "SCALAR",
      "byteOffset": 51402
    },
    {
      "bufferView": 2,
      "componentType": 5123,
      "count": 5754,
      "type": "SCALAR",
      "byteOffset": 56262
    },
    {
      "bufferView": 2,
      "componentType": 5123,
      "count": 3276,
      "type": "SCALAR",
      "byteOffset": 67770
    },
    {
      "bufferView": 2,
      "componentType": 5123,
      "count": 504,
      "type": "SCALAR",
      "byteOffset": 74322
    },
    {
      "bufferView": 2,
      "componentType": 5123,
      "count": 3084,
      "type": "SCALAR",
      "byteOffset": 75330
    },
    {
      "bufferView": 2,
      "componentType": 5123,
      "count": 504,
      "type": "SCALAR",
      "byteOffset": 81498
    }
  ],
  "bufferViews": [
    {
      "buffer": 0,
      "byteLength": 87792,
      "target": 34962,
      "byteStride": 12
    },
    {
      "buffer": 0,
      "byteOffset": 87792,
      "byteLength": 87792,
      "target": 34962,
      "byteStride": 12
    },
    {
      "buffer": 0,
      "byteOffset": 175584,
      "byteLength": 82506,
      "target": 34963
    }
  ],
  "buffers": [
    {
      "uri": "data:application/octet-stream;base64,",
      "byteLength": 258090
    }
  ]
}