{
  "asset": {
    "version": "2.0",
    "generator": "Sketchup glTF Exporter v1.2.6 by Centaur"
  },
  "scene": 0,
  "scenes": [
    {
      "nodes": [
        0
      ]
    }
  ],
  "samplers": [
    {
    }
  ],
  "nodes": [
    {
      "name": "root",
      "mesh": 0
    }
  ],
  "materials": [
    {
      "pbrMetallicRoughness": {
        "baseColorFactor": [
          0.0135,
          0.0017,
          0.0002,
          1.0
        ],
        "metallicFactor": 0.1,
        "roughnessFactor": 0.9
      },
      "name": "<auto>1"
    },
    {
      "pbrMetallicRoughness": {
        "baseColorFactor": [
          0.0072,
          0.0356,
          0.0037,
          1.0
        ],
        "metallicFactor": 0.1,
        "roughnessFactor": 0.9
      },
      "name": "<auto>2"
    }
  ],
  "meshes": [
    {
      "primitives": [
        {
          "attributes": {
            "POSITION": 0,
            "NORMAL": 1
          },
          "indices": 2,
          "mode": 4,
          "material": 0
        },
        {
          "attributes": {
            "POSITION": 0,
            "NORMAL": 1
          },
          "indices": 3,
          "mode": 4,
          "material": 1
        }
      ]
    }
  ],
  "accessors": [
    {
      "bufferView": 0,
      "componentType": 5126,
      "count": 14688,
      "type": "VEC3",
      "min": [
        -1.2439782076233932,
        -0.10725252911079992,
        -1.2633796293389292
      ],
      "max": [
        1.1943171489792077,
        2.0635729838928016,
        1.1089306804216719
      ]
    },
    {
      "bufferView": 1,
      "componentType": 5126,
      "count": 14688,
      "type": "VEC3",
      "min": [
        -1.0,
        -0.9999957192548745,
        -0.9998561739874687
      ],
      "max": [
        0.9988082846306827,
        0.9999719367319018,
        0.9966818180306041
      ]
    },
    {
      "bufferView": 2,
      "componentType": 5123,
      "count": 4248,
      "type": "SCALAR"
    },
    {
      "bufferView": 2,
      "componentType": 5123,
      "count": 10662,
      "type": "SCALAR",
      "byteOffset": 8496
    }
  ],
  "bufferViews": [
    {
      "buffer": 0,
      "byteLength": 176256,
      "target": 34962,
      "byteStride": 12
    },
    {
      "buffer": 0,
      "byteOffset": 176256,
      "byteLength": 176256,
      "target": 34962,
      "byteStride": 12
    },
    {
      "buffer": 0,
      "byteOffset": 352512,
      "byteLength": 29820,
      "target": 34963
    }
  ],
  "buffers": [
    {
      "uri": "data:application/octet-stream;base64,",
      "byteLength": 382332
    }
  ]
}