{
  "asset": {
    "version": "2.0",
    "generator": "Sketchup glTF Exporter v1.2.6 by Centaur"
  },
  "scene": 0,
  "scenes": [
    {
      "nodes": [
        0
      ]
    }
  ],
  "samplers": [
    {
    }
  ],
  "nodes": [
    {
      "name": "root",
      "children": [
        1
      ],
      "mesh": 1
    },
    {
      "mesh": 0
    }
  ],
  "materials": [
    {
      "pbrMetallicRoughness": {
        "baseColorFactor": [
          0.2176,
          0.2176,
          0.2176,
          1.0
        ],
        "metallicFactor": 0.1,
        "roughnessFactor": 0.9
      },
      "name": "default material",
      "doubleSided": true
    },
    {
      "pbrMetallicRoughness": {
        "baseColorTexture": {
          "index": 0
        },
        "metallicFactor": 0.1,
        "roughnessFactor": 0.9
      },
      "name": "Moons_of_solar_system_v7"
    },
    {
      "pbrMetallicRoughness": {
        "baseColorTexture": {
          "index": 1
        },
        "metallicFactor": 0.1,
        "roughnessFactor": 0.9
      },
      "name": "saturn1"
    },
    {
      "pbrMetallicRoughness": {
        "baseColorTexture": {
          "index": 2
        },
        "metallicFactor": 0.1,
        "roughnessFactor": 0.9
      },
      "name": "mars1_src"
    },
    {
      "pbrMetallicRoughness": {
        "baseColorFactor": [
          0.2195,
          0.2195,
          0.2195,
          0.5
        ],
        "metallicFactor": 0.1,
        "roughnessFactor": 0.9
      },
      "name": "Translucent_Glass_Gray v ",
      "doubleSided": true,
      "alphaMode": "BLEND"
    },
    {
      "pbrMetallicRoughness": {
        "baseColorTexture": {
          "index": 3
        },
        "metallicFactor": 0.1,
        "roughnessFactor": 0.9
      },
      "name": "jupitercyl2"
    },
    {
      "pbrMetallicRoughness": {
        "baseColorFactor": [
          0.2468,
          0.6253,
          0.8355,
          1.0
        ],
        "metallicFactor": 0.1,
        "roughnessFactor": 0.9
      },
      "name": "0096_SkyBlue"
    },
    {
      "pbrMetallicRoughness": {
        "baseColorFactor": [
          0.009,
          0.2845,
          1.0,
          1.0
        ],
        "metallicFactor": 0.1,
        "roughnessFactor": 0.9
      },
      "name": "0098_DodgerBlue"
    },
    {
      "pbrMetallicRoughness": {
        "baseColorTexture": {
          "index": 4
        },
        "metallicFactor": 0.1,
        "roughnessFactor": 0.9
      },
      "name": "earthmap"
    },
    {
      "pbrMetallicRoughness": {
        "baseColorFactor": [
          0.1701,
          0.1701,
          0.1701,
          1.0
        ],
        "metallicFactor": 0.1,
        "roughnessFactor": 0.9
      },
      "name": "Color_005",
      "doubleSided": true
    },
    {
      "pbrMetallicRoughness": {
        "baseColorFactor": [
          1.0,
          0.2388,
          0.0104,
          1.0
        ],
        "metallicFactor": 0.1,
        "roughnessFactor": 0.9
      },
      "name": "Color_D02",
      "doubleSided": true
    }
  ],
  "images": [
    {
      "bufferView": 0,
      "mimeType": "image/jpeg"
    },
    {
      "bufferView": 1,
      "mimeType": "image/jpeg"
    },
    {
      "bufferView": 2,
      "mimeType": "image/jpeg"
    },
    {
      "bufferView": 3,
      "mimeType": "image/jpeg"
    },
    {
      "bufferView": 4,
      "mimeType": "image/jpeg"
    }
  ],
  "textures": [
    {
      "source": 0,
      "sampler": 0
    },
    {
      "source": 1,
      "sampler": 0
    },
    {
      "source": 2,
      "sampler": 0
    },
    {
      "source": 3,
      "sampler": 0
    },
    {
      "source": 4,
      "sampler": 0
    }
  ],
  "meshes": [
    {
      "primitives": [
        {
          "attributes": {
            "POSITION": 0,
            "NORMAL": 1
          },
          "indices": 5,
          "mode": 4,
          "material": 4
        },
        {
          "attributes": {
            "POSITION": 0,
            "NORMAL": 1
          },
          "indices": 6,
          "mode": 4,
          "material": 10
        }
      ]
    },
    {
      "primitives": [
        {
          "attributes": {
            "POSITION": 0,
            "NORMAL": 1
          },
          "indices": 7,
          "mode": 4,
          "material": 0
        },
        {
          "attributes": {
            "POSITION": 2,
            "NORMAL": 3,
            "TEXCOORD_0": 4
          },
          "indices": 8,
          "mode": 4,
          "material": 1
        },
        {
          "attributes": {
            "POSITION": 2,
            "NORMAL": 3,
            "TEXCOORD_0": 4
          },
          "indices": 9,
          "mode": 4,
          "material": 2
        },
        {
          "attributes": {
            "POSITION": 2,
            "NORMAL": 3,
            "TEXCOORD_0": 4
          },
          "indices": 10,
          "mode": 4,
          "material": 3
        },
        {
          "attributes": {
            "POSITION": 0,
            "NORMAL": 1
          },
          "indices": 11,
          "mode": 4,
          "material": 4
        },
        {
          "attributes": {
            "POSITION": 2,
            "NORMAL": 3,
            "TEXCOORD_0": 4
          },
          "indices": 12,
          "mode": 4,
          "material": 5
        },
        {
          "attributes": {
            "POSITION": 0,
            "NORMAL": 1
          },
          "indices": 13,
          "mode": 4,
          "material": 6
        },
        {
          "attributes": {
            "POSITION": 0,
            "NORMAL": 1
          },
          "indices": 14,
          "mode": 4,
          "material": 7
        },
        {
          "attributes": {
            "POSITION": 2,
            "NORMAL": 3,
            "TEXCOORD_0": 4
          },
          "indices": 15,
          "mode": 4,
          "material": 8
        },
        {
          "attributes": {
            "POSITION": 0,
            "NORMAL": 1
          },
          "indices": 16,
          "mode": 4,
          "material": 9
        }
      ]
    }
  ],
  "accessors": [
    {
      "bufferView": 5,
      "componentType": 5126,
      "count": 1741,
      "type": "VEC3",
      "min": [
        -35.90642844427342,
        9.883938943025104,
        -4.7600180658495175
      ],
      "max": [
        31.88033250826814,
        18.424528979921092,
        4.442271121417587
      ]
    },
    {
      "bufferView": 6,
      "componentType": 5126,
      "count": 1741,
      "type": "VEC3",
      "min": [
        -1.0,
        -1.0,
        -1.0
      ],
      "max": [
        1.0,
        1.0,
        1.0
      ]
    },
    {
      "bufferView": 7,
      "componentType": 5126,
      "count": 2639,
      "type": "VEC3",
      "min": [
        -13.579547786960767,
        10.000802691271927,
        -3.3295081705909535
      ],
      "max": [
        16.660399120548647,
        16.251416706733075,
        2.9466653515601124
      ]
    },
    {
      "bufferView": 8,
      "componentType": 5126,
      "count": 2639,
      "type": "VEC3",
      "min": [
        -1.0,
        -1.0,
        -1.0
      ],
      "max": [
        1.0,
        0.9999999999999999,
        1.0
      ]
    },
    {
      "bufferView": 9,
      "componentType": 5126,
      "count": 2639,
      "type": "VEC2",
      "min": [
        -1.4888561795627502,
        -0.5344882631863406
      ],
      "max": [
        1.4851942807316445,
        2.255194773453385
      ]
    },
    {
      "bufferView": 10,
      "componentType": 5123,
      "count": 288,
      "type": "SCALAR"
    },
    {
      "bufferView": 10,
      "componentType": 5123,
      "count": 288,
      "type": "SCALAR",
      "byteOffset": 576
    },
    {
      "bufferView": 10,
      "componentType": 5123,
      "count": 5040,
      "type": "SCALAR",
      "byteOffset": 1152
    },
    {
      "bufferView": 11,
      "componentType": 5123,
      "count": 1584,
      "type": "SCALAR"
    },
    {
      "bufferView": 11,
      "componentType": 5123,
      "count": 1584,
      "type": "SCALAR",
      "byteOffset": 3168
    },
    {
      "bufferView": 11,
      "componentType": 5123,
      "count": 1584,
      "type": "SCALAR",
      "byteOffset": 6336
    },
    {
      "bufferView": 10,
      "componentType": 5123,
      "count": 288,
      "type": "SCALAR",
      "byteOffset": 11232
    },
    {
      "bufferView": 11,
      "componentType": 5123,
      "count": 1584,
      "type": "SCALAR",
      "byteOffset": 9504
    },
    {
      "bufferView": 10,
      "componentType": 5123,
      "count": 1584,
      "type": "SCALAR",
      "byteOffset": 11808
    },
    {
      "bufferView": 10,
      "componentType": 5123,
      "count": 1584,
      "type": "SCALAR",
      "byteOffset": 14976
    },
    {
      "bufferView": 11,
      "componentType": 5123,
      "count": 1584,
      "type": "SCALAR",
      "byteOffset": 12672
    },
    {
      "bufferView": 10,
      "componentType": 5123,
      "count": 288,
      "type": "SCALAR",
      "byteOffset": 18144
    }
  ],
  "bufferViews": [
    {
      "buffer": 0,
      "byteLength": 494075
    },
    {
      "buffer": 0,
      "byteOffset": 494075,
      "byteLength": 382198
    },
    {
      "buffer": 0,
      "byteOffset": 876273,
      "byteLength": 1203818
    },
    {
      "buffer": 0,
      "byteOffset": 2080091,
      "byteLength": 126578
    },
    {
      "buffer": 0,
      "byteOffset": 2206669,
      "byteLength": 740371
    },
    {
      "buffer": 0,
      "byteOffset": 2947044,
      "byteLength": 20892,
      "target": 34962,
      "byteStride": 12
    },
    {
      "buffer": 0,
      "byteOffset": 2967936,
      "byteLength": 20892,
      "target": 34962,
      "byteStride": 12
    },
    {
      "buffer": 0,
      "byteOffset": 2988828,
      "byteLength": 31668,
      "target": 34962,
      "byteStride": 12
    },
    {
      "buffer": 0,
      "byteOffset": 3020496,
      "byteLength": 31668,
      "target": 34962,
      "byteStride": 12
    },
    {
      "buffer": 0,
      "byteOffset": 3052168,
      "byteLength": 21112,
      "target": 34962,
      "byteStride": 8
    },
    {
      "buffer": 0,
      "byteOffset": 3073280,
      "byteLength": 18720,
      "target": 34963
    },
    {
      "buffer": 0,
      "byteOffset": 3092000,
      "byteLength": 15840,
      "target": 34963
    }
  ],
  "buffers": [
    {
      "uri": "data:application/octet-stream;base64,",
      "byteLength": 3107840
    }
  ]
}